<svg width="1491" height="824" viewBox="0 0 1491 824" fill="none" xmlns="http://www.w3.org/2000/svg">
<path d="M1491 824H0V0H1491V824ZM741.483 143C717.415 143.933 700.904 156.167 689.865 172.604C678.838 189.023 673.261 209.644 671.005 227.438C669.576 238.705 668.864 249.301 668.775 260.131C666.824 266.341 664.561 274.836 662.701 282.634C660.766 290.751 659.255 298.165 659.001 301.461C658.793 304.16 659.442 306.945 660.318 309.311C661.108 311.442 662.094 313.264 662.848 314.422C660.871 316.277 656.986 320.41 655.053 324.275C652.569 329.241 649 335.786 649 343C649 352.536 652.004 384.566 655.004 408.562C658.01 432.614 664.536 447.754 675.164 457.37C678.171 460.091 681.342 462.445 684.502 464.422C684.496 489.243 684 511.239 683.503 533.427C683.003 555.739 682.503 578.244 682.503 604C682.503 629.867 691.046 649.266 705.925 662.19C720.793 675.105 741.924 681.5 767.003 681.5C791.634 681.5 809.028 672.822 820.694 659.264C832.347 645.721 838.245 627.359 840.001 608.045C841.753 588.768 841.753 566.243 841.815 541.126C841.877 516.186 842.001 488.674 843.958 459.191C848.009 454.865 851.166 448.743 853.653 442.305C856.855 434.018 858.987 425.111 860.487 418.611C861.997 412.071 863.124 401.285 863.998 390.854C864.875 380.391 865.497 370.3 865.997 365.047C866.495 359.82 867.123 354.913 867.312 350.396C867.5 345.87 867.251 341.674 865.974 337.841C864.468 333.324 861.567 327.798 859.358 323.963C859.317 322.535 859.27 321.125 859.214 319.732C860.338 318.708 861.58 317.496 862.686 316.258C863.581 315.255 864.399 314.224 864.996 313.256C865.583 312.305 866 311.344 866 310.499C866 309.562 865.674 307.571 865.091 304.78C864.503 301.967 863.642 298.287 862.547 293.939C860.357 285.244 857.23 273.861 853.479 261.355C850.473 251.336 847.589 244.062 845.201 239.035C844.958 238.523 844.718 238.033 844.485 237.566C843.292 233.983 842.124 230.629 841.019 227.461L840.975 227.335C833.454 205.776 820.919 185.211 808.363 172.153C795.81 159.098 775.188 143 741.503 143H741.483ZM678.802 365.855C679.033 367.933 679.256 369.984 679.471 372.009C678.127 371.42 676.996 370.822 676.186 370.335C676.833 369.268 677.703 367.718 678.802 365.855Z" fill="#D9D9D9"/>
</svg>
