<svg width="219" height="256" viewBox="0 0 219 256" fill="none" xmlns="http://www.w3.org/2000/svg">
<path d="M185 8.44356C181.5 8.94356 159 20.4434 114.5 20.4434C80.9997 20.4434 44.9999 3.94272 39.9999 1.94272C34.9999 -0.0572809 31.9999 -0.0572809 30.9999 2.44272C29.9999 4.94272 31.4999 7.44272 31.9999 8.44272C32.4999 9.44272 24.4999 29.4427 20.4999 41.9427C16.4999 54.4427 10.9999 77.4427 10.4999 83.9427C10.0999 89.1427 12.9999 94.7761 14.4999 96.9427C12.6666 98.6094 8.49988 102.943 6.4997 106.943C3.99947 111.943 0.50032 118.372 0.5 125.443C0.49957 134.943 3.4997 166.943 6.4997 190.943C9.4997 214.943 15.9997 229.943 26.4997 239.443C36.9997 248.943 49.5002 253.943 56.4999 253.943C63.4997 253.943 67.4997 250.943 67.4997 249.943C67.4997 249.143 66.833 247.943 66.4997 247.443C66.6664 246.943 66.8997 245.043 66.4997 241.443C65.9997 236.943 60.4997 234.443 60.4997 232.943C60.4997 231.443 62.4999 223.943 62.4999 207.943C62.4999 191.943 57.9997 186.943 57.9997 184.943C57.9997 182.943 60.9997 178.943 60.4997 170.443C59.9997 161.943 48.4997 157.443 40.9997 157.443C34.9997 157.443 28.833 154.443 26.4997 152.943C28.4997 149.776 33.2394 140.349 40.9997 131.943C46.9999 125.443 55.9999 117.943 65.9999 112.443C75.9999 106.943 95.9997 103.443 118.5 104.943C141 106.443 155 111.443 165 118.443C173 124.043 186.333 145.109 192 154.943C191.5 155.276 189.9 156.043 187.5 156.443C184.5 156.943 185 155.943 181.5 155.943C178 155.943 175.5 157.943 175.5 161.443C175.5 162.943 173.5 163.943 172 168.943C170.8 172.943 172.5 177.276 173.5 178.943C172.666 181.609 170.5 189.943 168.5 201.943C166.5 213.943 167 225.609 167.5 229.943C166.833 230.943 165.2 233.743 164 236.943C162.5 240.943 164.5 244.943 165 245.943C165.5 246.943 165.5 247.943 165.5 249.443C165.5 250.943 165.5 252.443 168.5 254.443C171.5 256.443 179.5 252.443 191 244.443C202.5 236.443 208 213.943 211 200.943C214 187.943 215.5 157.943 216.5 147.443C217.5 136.943 219 127.943 216.5 120.443C214.5 114.443 210 106.609 208 103.443C210.833 101.109 216.5 95.7427 216.5 92.9427C216.5 89.4427 211.5 68.9427 204 43.9427C198 23.9427 192.5 14.9427 190.5 12.9427C190.666 12.1097 190.9 10.2436 190.5 9.44356C190 8.44356 188.5 7.94356 185 8.44356Z" stroke="black"/>
</svg>
