<svg width="191" height="539" viewBox="0 0 191 539" fill="none" xmlns="http://www.w3.org/2000/svg">
<path d="M139.237 29.5C126.737 16.5 106.237 0.5 72.7371 0.5C24.9791 2.35212 7.23626 49 2.73537 84.5C-1.66194 119.183 0.736362 147.5 7.23709 196C14.6463 251.278 16.2371 289.5 16.2371 321C16.2371 371 14.2371 409.5 14.2371 461C14.2371 512.5 48.2371 538 98.2371 538C147.237 538 167.237 503.5 170.737 465C174.237 426.5 170.737 375 174.737 315.5C178.737 256 190.737 241 190.237 188.5C189.738 136.102 179.278 106.117 171.781 84.6258L171.737 84.5C164.237 63 151.737 42.5 139.237 29.5Z" stroke="black"/>
</svg>
