<svg width="183" height="538" viewBox="0 0 183 538" fill="none" xmlns="http://www.w3.org/2000/svg">
<path d="M85.9863 537.494L85.9912 537.993C85.6613 537.997 85.3309 538 85 538C84.6688 538 84.3381 537.997 84.0078 537.993L84.0137 537.494L84.0205 536.994C84.3465 536.998 84.673 537 85 537C85.327 537 85.6535 536.998 85.9795 536.994L85.9863 537.494ZM80.1211 536.848C80.7683 536.888 81.4179 536.921 82.0693 536.945L82.0498 537.444L82.041 537.691L82.0312 537.943C81.3716 537.919 80.714 537.886 80.0586 537.845L80.1211 536.848ZM89.9404 537.845C89.285 537.886 88.6275 537.919 87.9678 537.943L87.9492 537.445V537.444L87.9307 536.945C88.5821 536.921 89.2317 536.888 89.8789 536.848L89.9404 537.845ZM76.2344 536.507C76.8788 536.58 77.5256 536.645 78.1748 536.702L78.0869 537.697C77.4296 537.64 76.7746 537.573 76.1221 537.499L76.2344 536.507ZM93.8779 537.499C93.225 537.573 92.5698 537.64 91.9121 537.697L91.8252 536.702C92.4744 536.645 93.1212 536.58 93.7656 536.507L93.8779 537.499ZM72.3701 535.97C73.0101 536.075 73.6527 536.173 74.2979 536.263L74.2285 536.757L74.1602 537.252C73.5065 537.161 72.8554 537.062 72.207 536.955L72.2246 536.848L72.3701 535.97ZM97.7109 536.463H97.7119L97.792 536.955C97.1436 537.062 96.4925 537.161 95.8389 537.252L95.7705 536.758V536.757L95.7021 536.263C96.3473 536.173 96.9899 536.075 97.6299 535.97L97.7109 536.463ZM68.5381 535.236C69.1722 535.374 69.8094 535.505 70.4492 535.627L70.3545 536.117L70.3555 536.118L70.2803 536.507L70.2607 536.608C69.6127 536.484 68.9674 536.353 68.3252 536.213L68.5381 535.236ZM101.674 536.213C101.032 536.353 100.386 536.484 99.7383 536.608L99.7197 536.507L99.6445 536.118V536.117L99.5508 535.627C100.191 535.505 100.828 535.374 101.462 535.236L101.674 536.213ZM64.749 534.31C65.3753 534.48 66.0051 534.642 66.6377 534.797L66.5176 535.282L66.5186 535.283L66.3994 535.768C65.7586 535.611 65.1209 535.446 64.4863 535.273L64.749 534.31ZM105.513 535.273C104.878 535.446 104.24 535.611 103.6 535.768L103.481 535.283V535.282L103.362 534.797C103.995 534.642 104.625 534.48 105.251 534.31L105.513 535.273ZM61.0117 533.19C61.6287 533.393 62.2493 533.587 62.873 533.773L62.7285 534.252L62.7295 534.253L62.6719 534.443L62.5859 534.73C61.9539 534.541 61.3254 534.343 60.7002 534.139L61.0117 533.19ZM109.144 533.665L109.18 533.773L109.299 534.139C108.674 534.343 108.045 534.541 107.413 534.73L107.271 534.253V534.252L107.127 533.773C107.751 533.587 108.371 533.393 108.988 533.19L109.144 533.665ZM57.3359 531.882C57.9422 532.115 58.5525 532.341 59.166 532.56L58.8311 533.5C58.2093 533.279 57.591 533.05 56.9766 532.813L57.3359 531.882ZM113.022 532.813C112.408 533.05 111.79 533.279 111.169 533.5L111.165 533.487L110.834 532.56C111.448 532.341 112.058 532.115 112.664 531.882L113.022 532.813ZM53.7324 530.387C54.3261 530.651 54.9239 530.908 55.5254 531.157L55.1426 532.079C54.5332 531.826 53.9276 531.566 53.3262 531.299L53.7324 530.387ZM116.673 531.299C116.071 531.566 115.466 531.826 114.856 532.079L114.475 531.157C115.076 530.908 115.674 530.651 116.268 530.387L116.673 531.299ZM50.21 528.711C50.7895 529.005 51.373 529.293 51.9609 529.572L51.5312 530.473C50.9357 530.189 50.344 529.899 49.7568 529.602L50.21 528.711ZM120.242 529.602C119.655 529.899 119.063 530.189 118.468 530.473L118.039 529.572C118.627 529.293 119.21 529.005 119.79 528.711L120.242 529.602ZM46.7764 526.858C47.3405 527.182 47.9095 527.497 48.4824 527.807L48.2441 528.246L48.0273 528.648L48.0068 528.686C47.4265 528.372 46.8507 528.052 46.2793 527.725L46.5273 527.292L46.7764 526.858ZM123.473 527.292L123.72 527.725C123.148 528.052 122.573 528.372 121.992 528.686L121.755 528.247V528.246L121.518 527.807C122.091 527.497 122.66 527.182 123.224 526.858L123.473 527.292ZM43.4414 524.833C43.9885 525.184 44.5403 525.529 45.0967 525.867L44.8369 526.294L44.5771 526.722C44.0137 526.38 43.4554 526.03 42.9014 525.674L43.4414 524.833ZM127.098 525.674C126.544 526.03 125.985 526.38 125.422 526.722L125.162 526.295V526.294L124.903 525.867C125.46 525.529 126.012 525.184 126.559 524.833L127.098 525.674ZM40.2129 522.643C40.7416 523.021 41.2759 523.393 41.8145 523.759L41.5332 524.172L41.252 524.584C40.7067 524.214 40.1661 523.838 39.6309 523.454L40.2129 522.643ZM130.368 523.454C129.833 523.837 129.292 524.214 128.747 524.584L128.467 524.172V524.171L128.187 523.759C128.725 523.393 129.259 523.021 129.787 522.643L130.368 523.454ZM37.0996 520.291C37.6084 520.696 38.1224 521.094 38.6416 521.486L38.3398 521.885L38.1943 522.079L38.0391 522.283C37.5129 521.886 36.9922 521.482 36.4766 521.071L37.0996 520.291ZM133.522 521.071C133.007 521.482 132.486 521.886 131.96 522.283L131.659 521.886V521.885L131.358 521.486C131.878 521.094 132.392 520.696 132.9 520.291L133.522 521.071ZM34.1084 517.785C34.5963 518.215 35.0892 518.64 35.5879 519.058L35.2666 519.439L35.2676 519.44L35.1445 519.588L34.9473 519.822C34.4419 519.399 33.9416 518.97 33.4473 518.534L33.7773 518.161L34.1084 517.785ZM136.223 518.161L136.552 518.534C136.057 518.97 135.557 519.399 135.052 519.822L134.855 519.588L134.732 519.44V519.439L134.412 519.058C134.911 518.64 135.404 518.215 135.892 517.785L136.223 518.161ZM31.2471 515.133C31.7127 515.587 32.1842 516.035 32.6611 516.478L31.9814 517.21C31.4982 516.762 31.0206 516.308 30.5488 515.848L31.2471 515.133ZM139.102 515.49L139.413 515.81L139.45 515.848C138.978 516.308 138.501 516.762 138.018 517.21L137.339 516.478C137.816 516.035 138.287 515.587 138.753 515.133L139.102 515.49ZM28.5225 512.339C28.9647 512.816 29.4132 513.287 29.8672 513.753L29.5088 514.102L29.1748 514.429L29.1514 514.45C28.6913 513.978 28.2371 513.501 27.7891 513.018L28.5225 512.339ZM142.21 513.018C141.762 513.501 141.308 513.978 140.848 514.45L140.49 514.103V514.102L140.133 513.753C140.587 513.287 141.035 512.816 141.478 512.339L142.21 513.018ZM25.9424 509.412C26.3601 509.911 26.7848 510.404 27.2148 510.892L26.8379 511.222L26.8389 511.223L26.4648 511.552C26.0291 511.057 25.6 510.557 25.1768 510.052L25.9424 509.412ZM144.822 510.052C144.399 510.557 143.97 511.057 143.534 511.552L143.161 511.223V511.222L142.785 510.892C143.215 510.404 143.64 509.911 144.058 509.412L144.822 510.052ZM23.5137 506.358C23.9057 506.878 24.3042 507.392 24.709 507.9L23.9277 508.522C23.5175 508.007 23.1132 507.486 22.7158 506.96L23.1143 506.659L23.5137 506.358ZM147.283 506.96C146.886 507.486 146.482 508.007 146.071 508.522L145.291 507.9C145.696 507.392 146.094 506.878 146.486 506.358L147.283 506.96ZM21.2412 503.187C21.6066 503.725 21.9788 504.259 22.3574 504.787L21.9512 505.078L21.5449 505.368C21.1615 504.833 20.7851 504.292 20.415 503.747L21.2412 503.187ZM149.172 503.467L149.584 503.747C149.214 504.292 148.837 504.833 148.454 505.368L148.049 505.078L147.643 504.787C148.021 504.259 148.393 503.725 148.759 503.187L149.172 503.467ZM19.1328 499.903C19.4706 500.46 19.8156 501.012 20.167 501.559L19.7451 501.828L19.415 502.041L19.3252 502.098C18.9693 501.544 18.6194 500.985 18.2773 500.422H18.2783L19.1328 499.903ZM151.294 500.162L151.722 500.422C151.38 500.985 151.03 501.544 150.674 502.098L150.254 501.829V501.828L149.833 501.559C150.184 501.012 150.529 500.46 150.867 499.903L151.294 500.162ZM86.0332 501.986C85.6898 501.995 85.3454 502 85 502C84.6543 502 84.3095 501.995 83.9658 501.986L83.9902 500.988C84.3258 500.996 84.6624 501 85 501C85.3376 501 85.6742 500.996 86.0098 500.988L86.0332 501.986ZM79.9766 500.695C80.6394 500.776 81.3072 500.842 81.9795 500.891L81.9072 501.886C81.2185 501.836 80.5346 501.768 79.8555 501.686L79.9766 500.695ZM90.084 501.191L90.1182 501.476L90.1436 501.686C89.4645 501.768 88.7805 501.836 88.0918 501.886L88.0205 500.891C88.6928 500.842 89.3606 500.776 90.0234 500.695L90.084 501.191ZM76.0117 500.012C76.6638 500.158 77.3219 500.288 77.9854 500.402L77.9004 500.896L77.8164 501.385C77.1365 501.268 76.4622 501.135 75.7939 500.985L76.0117 500.012ZM94.0967 500.5H94.0977L94.165 500.805L94.2051 500.985C93.5371 501.135 92.8632 501.268 92.1836 501.385L92.0996 500.896V500.895L92.0146 500.402C92.6781 500.288 93.3362 500.158 93.9883 500.012L94.0967 500.5ZM72.1338 498.941C72.7689 499.151 73.4112 499.345 74.0596 499.524L73.9258 500.006L73.8682 500.219L73.7939 500.485C73.1292 500.302 72.4714 500.102 71.8203 499.887L72.1338 498.941ZM98.1787 499.887C97.5276 500.102 96.8698 500.302 96.2051 500.485L96.0732 500.007V500.006L95.9404 499.524C96.5888 499.345 97.2311 499.151 97.8662 498.941L98.1787 499.887ZM68.3809 497.492C68.9925 497.764 69.6123 498.021 70.2393 498.263L69.8809 499.193C69.2379 498.945 68.6028 498.682 67.9756 498.403L68.3809 497.492ZM101.821 497.949L101.831 497.97L102.023 498.403C101.396 498.682 100.761 498.945 100.118 499.193L99.7607 498.263C100.388 498.021 101.007 497.764 101.619 497.492L101.821 497.949ZM17.1934 496.518C17.5026 497.091 17.8184 497.66 18.1416 498.224L17.707 498.472L17.708 498.473L17.2744 498.72C16.9471 498.148 16.6267 497.573 16.3135 496.992L16.7529 496.755L17.1934 496.518ZM153.686 496.992C153.372 497.573 153.052 498.148 152.725 498.72L152.292 498.473V498.472L151.858 498.224C152.182 497.66 152.497 497.091 152.807 496.518L153.686 496.992ZM64.7881 495.681C65.3707 496.011 65.9626 496.328 66.5625 496.631L66.1133 497.521C65.4985 497.21 64.8919 496.887 64.2949 496.548L64.7881 495.681ZM105.704 496.548C105.107 496.887 104.501 497.21 103.886 497.521L103.438 496.631C104.037 496.328 104.629 496.011 105.212 495.681L105.704 496.548ZM61.3906 493.524C61.9384 493.911 62.4964 494.285 63.0635 494.645L62.5283 495.486C61.9476 495.118 61.3764 494.736 60.8154 494.34L61.1025 493.933L61.3906 493.524ZM108.897 493.933L109.184 494.34C108.623 494.736 108.051 495.118 107.471 495.486L106.937 494.645C107.504 494.285 108.062 493.911 108.609 493.524L108.897 493.933ZM15.4277 493.039C15.7074 493.627 15.995 494.21 16.2891 494.79L15.3975 495.242C15.0996 494.655 14.8097 494.063 14.5264 493.468L15.4277 493.039ZM155.473 493.468C155.189 494.063 154.899 494.655 154.602 495.242L153.711 494.79C154.005 494.21 154.293 493.627 154.572 493.039L155.473 493.468ZM58.2197 491.047C58.7274 491.485 59.2465 491.911 59.7754 492.324L59.1592 493.111C58.6175 492.688 58.0864 492.252 57.5664 491.803L57.8936 491.425L58.2197 491.047ZM112.433 491.803C111.913 492.252 111.382 492.688 110.84 493.111L110.225 492.324C110.754 491.911 111.273 491.485 111.78 491.047L112.433 491.803ZM13.8428 489.475C14.0922 490.076 14.3492 490.674 14.6133 491.268L13.7002 491.673C13.4326 491.071 13.1726 490.466 12.9199 489.856L13.8428 489.475ZM157.079 489.856C156.826 490.466 156.566 491.071 156.299 491.673L155.387 491.268C155.651 490.674 155.908 490.076 156.157 489.475L157.079 489.856ZM55.3057 488.271C55.7683 488.757 56.2427 489.232 56.7285 489.694L56.0391 490.418C55.5413 489.944 55.0551 489.458 54.5811 488.96L55.3057 488.271ZM115.418 488.96C114.944 489.458 114.458 489.944 113.96 490.418L113.271 489.694C113.757 489.232 114.232 488.757 114.694 488.271L115.418 488.96ZM12.4404 485.834C12.6589 486.448 12.8847 487.058 13.1182 487.664L12.1855 488.022C11.9491 487.408 11.7203 486.79 11.499 486.169L12.4404 485.834ZM158.5 486.169C158.279 486.79 158.05 487.408 157.813 488.022L156.882 487.664C157.115 487.058 157.341 486.448 157.56 485.834L158.5 486.169ZM52.6758 485.225C53.0891 485.754 53.5148 486.273 53.9531 486.78L53.1963 487.433C52.7474 486.913 52.3111 486.382 51.8877 485.84L52.6758 485.225ZM118.111 485.84C117.688 486.382 117.252 486.913 116.803 487.433L116.425 487.106H116.424L116.047 486.78C116.485 486.273 116.911 485.754 117.324 485.225L118.111 485.84ZM11.2266 482.127C11.4134 482.751 11.6075 483.371 11.8096 483.988L11.334 484.144L10.8604 484.299C10.6556 483.674 10.4578 483.045 10.2686 482.413L11.2266 482.127ZM159.73 482.413C159.541 483.045 159.343 483.674 159.139 484.299L158.665 484.145V484.144L158.19 483.988C158.393 483.371 158.587 482.751 158.773 482.127L159.73 482.413ZM50.3555 481.937C50.7153 482.504 51.0891 483.062 51.4756 483.609L51.0664 483.896L50.6592 484.184C50.2634 483.623 49.8812 483.051 49.5127 482.471L50.3555 481.937ZM120.486 482.471C120.118 483.051 119.736 483.623 119.34 484.184L118.933 483.897V483.896L118.524 483.609C118.911 483.062 119.285 482.504 119.645 481.937L120.486 482.471ZM48.3691 478.438C48.6717 479.037 48.9886 479.629 49.3193 480.212L48.4512 480.704C48.1123 480.107 47.7886 479.501 47.4785 478.886L48.3691 478.438ZM122.521 478.886C122.21 479.501 121.887 480.107 121.548 480.704L120.681 480.212C121.011 479.629 121.328 479.037 121.631 478.438L122.521 478.886ZM10.2031 478.362C10.3579 478.995 10.5202 479.625 10.6904 480.251L10.207 480.382L10.208 480.383L9.72559 480.513C9.55308 479.878 9.38822 479.24 9.23145 478.6L10.2031 478.362ZM160.282 478.481H160.283L160.768 478.6C160.611 479.24 160.446 479.878 160.273 480.513L159.792 480.383V480.382L159.31 480.251C159.48 479.625 159.642 478.995 159.797 478.362L160.282 478.481ZM46.7373 474.761C46.9793 475.388 47.2363 476.007 47.5078 476.619L47.0498 476.821L46.5957 477.023C46.3173 476.396 46.0538 475.761 45.8057 475.118L46.7373 474.761ZM124.193 475.118C123.945 475.761 123.682 476.396 123.403 477.023L122.949 476.822V476.821L122.492 476.619C122.764 476.007 123.021 475.388 123.263 474.761L124.193 475.118ZM9.37305 474.551C9.49541 475.191 9.62558 475.828 9.76367 476.462L9.27441 476.567L9.27539 476.568L8.78613 476.674C8.64627 476.032 8.51455 475.386 8.39062 474.738L9.37305 474.551ZM161.117 474.645H161.118L161.608 474.738C161.484 475.386 161.353 476.032 161.213 476.674L160.725 476.568V476.567L160.236 476.462C160.374 475.828 160.505 475.191 160.627 474.551L161.117 474.645ZM45.4756 470.94C45.6547 471.589 45.8489 472.231 46.0586 472.866L45.1123 473.179C44.8973 472.528 44.6972 471.87 44.5137 471.205L44.9932 471.073L45.4756 470.94ZM125.006 471.073L125.485 471.205C125.302 471.87 125.102 472.528 124.887 473.179L123.941 472.866C124.151 472.231 124.345 471.589 124.524 470.94L125.006 471.073ZM8.7373 470.702C8.82701 471.347 8.92469 471.99 9.03027 472.63L8.53613 472.711L8.53711 472.712L8.04395 472.792C7.93697 472.144 7.83794 471.493 7.74707 470.839L8.7373 470.702ZM161.757 470.771L162.252 470.839C162.161 471.493 162.062 472.144 161.955 472.792L161.463 472.712V472.711L160.97 472.63C161.075 471.99 161.173 471.347 161.263 470.702L161.757 470.771ZM44.5977 467.015C44.712 467.678 44.8425 468.336 44.9883 468.988L44.499 469.097L44.5 469.098L44.0137 469.205C43.8643 468.537 43.7314 467.863 43.6143 467.184L44.1045 467.1L44.5977 467.015ZM125.896 467.1L126.385 467.184C126.268 467.863 126.135 468.537 125.985 469.205L125.5 469.098V469.097L125.012 468.988C125.158 468.336 125.288 467.678 125.402 467.015L125.896 467.1ZM8.29785 466.825C8.35486 467.474 8.42015 468.121 8.49316 468.766L7.5 468.878C7.42603 468.225 7.35951 467.57 7.30176 466.912L7.7998 466.869L8.29785 466.825ZM162.697 466.912C162.64 467.57 162.573 468.225 162.499 468.878L161.507 468.766C161.58 468.121 161.645 467.474 161.702 466.825L162.697 466.912ZM44.1094 463.021C44.1583 463.693 44.2237 464.361 44.3047 465.023L43.8076 465.083L43.8086 465.084L43.3135 465.144C43.2306 464.464 43.1634 463.78 43.1133 463.092L44.1094 463.021ZM126.886 463.092C126.836 463.781 126.768 464.464 126.686 465.144L126.191 465.084V465.083L125.695 465.023C125.776 464.361 125.842 463.693 125.891 463.021L126.886 463.092ZM8.05469 462.931C8.07906 463.582 8.11189 464.232 8.15234 464.879L7.1543 464.94C7.11333 464.285 7.08034 463.627 7.05566 462.968L7.55469 462.949L8.05469 462.931ZM162.943 462.968C162.919 463.627 162.886 464.285 162.845 464.94L161.848 464.879C161.888 464.232 161.921 463.582 161.945 462.931L162.943 462.968ZM44.0117 458.99C44.0036 459.326 44 459.662 44 460C44 460.338 44.0036 460.674 44.0117 461.01L43.0127 461.033C43.0044 460.69 43 460.345 43 460L43.0127 458.966L44.0117 458.99ZM127 460C127 460.345 126.995 460.69 126.986 461.033L125.988 461.01C125.996 460.674 126 460.338 126 460C126 459.662 125.996 459.326 125.988 458.99L126.986 458.966C126.995 459.31 127 459.654 127 460ZM7.50586 459.014H7.50488L8.00586 459.021C8.0018 459.347 8 459.673 8 460C8 460.327 8.0018 460.653 8.00586 460.979L7.50488 460.985L7.50586 460.986L7.00586 460.991C7.00175 460.661 7 460.331 7 460C7 459.669 7.00174 459.338 7.00586 459.008L7.50586 459.014ZM163 460C163 460.331 162.997 460.661 162.993 460.991L162.494 460.986V460.985L161.994 460.979C161.998 460.653 162 460.327 162 460C162 459.673 161.998 459.347 161.994 459.021L162.494 459.014L162.993 459.008C162.997 459.338 163 459.669 163 460ZM8.15234 455.121C8.11189 455.768 8.07906 456.418 8.05469 457.069L7.55469 457.05V457.051L7.05566 457.031C7.06872 456.682 7.08394 456.334 7.10156 455.986L7.1543 455.059L8.15234 455.121ZM162.845 455.059C162.886 455.714 162.919 456.372 162.943 457.031H162.944L162.445 457.051L162.444 457.05L161.945 457.069C161.921 456.418 161.888 455.768 161.848 455.121L162.845 455.059ZM44.3047 454.977C44.2237 455.639 44.1583 456.307 44.1094 456.979L43.6104 456.942V456.943L43.1133 456.907C43.1634 456.219 43.2305 455.535 43.3135 454.855L44.3047 454.977ZM126.686 454.855C126.768 455.535 126.836 456.219 126.886 456.907L126.39 456.943L126.389 456.942L125.891 456.979C125.842 456.307 125.776 455.639 125.695 454.977L126.686 454.855ZM7.99609 451.178H7.99512L8.49316 451.234C8.42015 451.879 8.35486 452.526 8.29785 453.175L7.30176 453.087C7.33289 452.732 7.36648 452.379 7.40234 452.025L7.5 451.122L7.99609 451.178ZM162.499 451.121C162.573 451.774 162.64 452.429 162.697 453.087L161.702 453.175C161.645 452.526 161.58 451.879 161.507 451.234L162.499 451.121ZM44.5 450.902H44.499L44.9883 451.012C44.8425 451.664 44.712 452.322 44.5977 452.985L43.6143 452.816C43.7314 452.137 43.8642 451.462 44.0137 450.794L44.5 450.902ZM125.985 450.794C126.135 451.462 126.268 452.136 126.385 452.815L125.896 452.9L125.895 452.899L125.402 452.985C125.288 452.322 125.158 451.664 125.012 451.012L125.5 450.902L125.985 450.794ZM8.53711 447.288H8.53613L9.03027 447.37C8.92469 448.01 8.82701 448.653 8.7373 449.298L8.24219 449.229L7.74707 449.16C7.83795 448.506 7.93697 447.855 8.04395 447.207L8.53711 447.288ZM161.955 447.207C162.062 447.855 162.161 448.506 162.252 449.16L161.758 449.229L161.757 449.229L161.263 449.298C161.173 448.653 161.075 448.01 160.97 447.37L161.955 447.207ZM46.0586 447.134C45.8489 447.769 45.6547 448.411 45.4756 449.06L44.5137 448.794C44.6973 448.129 44.8973 447.471 45.1123 446.82L46.0586 447.134ZM124.887 446.82C125.102 447.471 125.302 448.129 125.485 448.794L124.524 449.06C124.345 448.411 124.151 447.769 123.941 447.134L124.887 446.82ZM9.76367 443.538C9.62558 444.172 9.49541 444.809 9.37305 445.449L8.88184 445.354V445.355L8.39062 445.261C8.51456 444.613 8.64627 443.967 8.78613 443.325L9.76367 443.538ZM161.213 443.325C161.353 443.967 161.484 444.613 161.608 445.261H161.609L161.118 445.355L161.117 445.354L160.627 445.449C160.505 444.809 160.374 444.172 160.236 443.538L161.213 443.325ZM47.0508 443.178H47.0498L47.5078 443.381C47.2363 443.993 46.9793 444.612 46.7373 445.239L45.8057 444.881C46.0538 444.238 46.3173 443.603 46.5957 442.976L47.0508 443.178ZM123.403 442.976C123.682 443.603 123.945 444.238 124.193 444.881L123.263 445.239C123.021 444.612 122.764 443.993 122.492 443.381L122.949 443.178L123.403 442.976ZM10.208 439.617H10.207L10.6904 439.749C10.5202 440.375 10.3579 441.005 10.2031 441.638L9.23145 441.399C9.38823 440.759 9.55307 440.121 9.72559 439.486L10.208 439.617ZM160.273 439.486C160.446 440.121 160.611 440.759 160.768 441.399H160.769L160.59 441.443L159.797 441.638C159.642 441.005 159.48 440.375 159.31 439.749L159.792 439.617L160.273 439.486ZM49.3193 439.788C48.9886 440.371 48.6717 440.963 48.3691 441.562L47.4785 441.113C47.7886 440.499 48.1122 439.892 48.4512 439.295L49.3193 439.788ZM121.548 439.295C121.887 439.892 122.21 440.498 122.521 441.113L121.631 441.562C121.328 440.963 121.011 440.371 120.681 439.788L121.548 439.295ZM51.4756 436.391C51.0891 436.938 50.7153 437.496 50.3555 438.063L49.5127 437.528C49.8812 436.948 50.2634 436.376 50.6592 435.815L51.4756 436.391ZM119.34 435.815C119.736 436.376 120.118 436.948 120.486 437.528L119.645 438.063C119.285 437.496 118.911 436.938 118.524 436.391L119.34 435.815ZM11.335 435.855H11.334L11.8096 436.012C11.6075 436.629 11.4134 437.249 11.2266 437.873L10.7471 437.729V437.729L10.2686 437.586C10.4579 436.954 10.6556 436.325 10.8604 435.7L11.335 435.855ZM159.139 435.7C159.343 436.325 159.541 436.954 159.73 437.586L159.253 437.729L159.252 437.729L158.773 437.873C158.587 437.249 158.393 436.629 158.19 436.012L158.665 435.855L159.139 435.7ZM53.9531 433.22C53.5148 433.727 53.0891 434.246 52.6758 434.775L51.8877 434.159C52.3111 433.617 52.7474 433.086 53.1963 432.566L53.9531 433.22ZM116.803 432.566C117.252 433.086 117.688 433.617 118.111 434.159L117.324 434.775C116.911 434.246 116.485 433.727 116.047 433.22L116.803 432.566ZM12.6523 432.156H12.6514L13.1182 432.336C12.8847 432.942 12.6589 433.552 12.4404 434.166L11.499 433.831C11.7204 433.209 11.9489 432.591 12.1855 431.977L12.6523 432.156ZM157.813 431.977C158.05 432.591 158.279 433.209 158.5 433.83L157.56 434.166C157.341 433.552 157.115 432.942 156.882 432.336L157.813 431.977ZM56.7285 430.306C56.2427 430.768 55.7683 431.243 55.3057 431.729L54.5811 431.039C55.0551 430.541 55.5413 430.055 56.0391 429.581L56.7285 430.306ZM113.96 429.581C114.458 430.055 114.944 430.541 115.418 431.039L114.694 431.729C114.232 431.243 113.757 430.768 113.271 430.306L113.96 429.581ZM14.6133 428.732C14.3492 429.326 14.0922 429.924 13.8428 430.525L12.9199 430.143C13.1726 429.533 13.4326 428.928 13.7002 428.326L14.6133 428.732ZM156.299 428.326C156.566 428.928 156.826 429.533 157.079 430.143L156.157 430.525C155.908 429.924 155.651 429.326 155.387 428.732L156.299 428.326ZM59.7754 427.676C59.2465 428.089 58.7274 428.515 58.2197 428.953L57.5664 428.196C58.0863 427.747 58.6175 427.311 59.1592 426.888L59.7754 427.676ZM110.84 426.888C111.382 427.311 111.913 427.747 112.433 428.196L111.78 428.953C111.273 428.515 110.754 428.089 110.225 427.676L110.84 426.888ZM16.2891 425.21C15.995 425.79 15.7074 426.373 15.4277 426.961L14.5264 426.531C14.8097 425.936 15.0996 425.344 15.3975 424.757L16.2891 425.21ZM154.602 424.757C154.899 425.344 155.189 425.936 155.473 426.531L154.572 426.961C154.293 426.373 154.005 425.79 153.711 425.21L154.602 424.757ZM63.0635 425.355C62.4964 425.715 61.9384 426.089 61.3906 426.476L60.8779 425.749L60.8154 425.659C61.3764 425.263 61.9476 424.881 62.5283 424.513L63.0635 425.355ZM107.471 424.513C108.051 424.881 108.623 425.263 109.184 425.659L109.122 425.749L108.609 426.476C108.062 426.089 107.504 425.715 106.937 425.355L107.471 424.513ZM66.5625 423.369C65.9626 423.672 65.3707 423.989 64.7881 424.319L64.2949 423.451C64.8919 423.112 65.4985 422.789 66.1133 422.479L66.5625 423.369ZM103.886 422.479C104.501 422.789 105.107 423.112 105.704 423.451L105.212 424.319C104.629 423.989 104.037 423.672 103.438 423.369L103.886 422.479ZM17.708 421.527H17.707L18.1416 421.776C17.8184 422.34 17.5026 422.909 17.1934 423.482L16.7529 423.244L16.3135 423.007C16.4963 422.668 16.6815 422.331 16.8691 421.995L17.2744 421.279L17.708 421.527ZM152.725 421.279C153.052 421.851 153.372 422.427 153.686 423.007L153.247 423.245L153.246 423.244L152.807 423.482C152.497 422.909 152.182 422.34 151.858 421.776L152.725 421.279ZM70.2393 421.737C69.6123 421.979 68.9925 422.236 68.3809 422.508L67.9756 421.596C68.6028 421.317 69.238 421.054 69.8809 420.806L70.2393 421.737ZM100.118 420.806C100.761 421.054 101.396 421.317 102.023 421.596L101.619 422.508C101.007 422.236 100.388 421.979 99.7607 421.737L100.118 420.806ZM73.9248 419.988L74.0596 420.476C73.4112 420.655 72.7689 420.849 72.1338 421.059L71.8203 420.112C72.4714 419.897 73.1292 419.697 73.7939 419.514L73.9248 419.988ZM96.2051 419.514C96.8698 419.697 97.5276 419.897 98.1787 420.112L97.8662 421.059C97.2311 420.849 96.5888 420.655 95.9404 420.476L96.0752 419.988L96.2051 419.514ZM19.7461 418.171H19.7451L20.167 418.441C19.8156 418.988 19.4706 419.54 19.1328 420.097L18.7051 419.837L18.2783 419.578L18.2773 419.577C18.6076 419.033 18.945 418.494 19.2881 417.959L19.3252 417.901L19.7461 418.171ZM150.674 417.901C151.03 418.455 151.38 419.014 151.722 419.577V419.578L151.295 419.838L151.294 419.837L150.867 420.097C150.529 419.54 150.184 418.988 149.833 418.441L150.254 418.171L150.674 417.901ZM77.8818 419L77.9854 419.598C77.3219 419.712 76.6638 419.842 76.0117 419.988L75.8555 419.29L75.7939 419.014C76.4619 418.864 77.1359 418.731 77.8154 418.614L77.8818 419ZM92.1836 418.614C92.8631 418.731 93.5371 418.864 94.2051 419.014L94.1445 419.29L93.9883 419.988C93.3362 419.842 92.6781 419.712 92.0146 419.598L92.1182 419L92.1836 418.614ZM81.9795 419.109C81.3072 419.158 80.6394 419.224 79.9766 419.305L79.8838 418.548L79.8555 418.313C80.5345 418.231 81.2185 418.163 81.9072 418.113L81.9795 419.109ZM88.0918 418.113C88.7805 418.163 89.4645 418.231 90.1436 418.313L90.1162 418.548L90.0234 419.305C89.3606 419.224 88.6928 419.158 88.0205 419.109L88.0918 418.113ZM86.0332 418.013L86.0098 419.012C85.6742 419.004 85.3376 419 85 419C84.6624 419 84.3258 419.004 83.9902 419.012L83.9658 418.013C84.3095 418.004 84.6543 418 85 418C85.3454 418 85.6898 418.004 86.0332 418.013ZM22.3574 415.213C21.9788 415.742 21.6067 416.276 21.2412 416.814L20.415 416.252C20.7851 415.707 21.1615 415.166 21.5449 414.631L22.3574 415.213ZM148.454 414.631C148.838 415.166 149.214 415.707 149.584 416.252L148.759 416.813C148.393 416.275 148.021 415.741 147.643 415.213L148.454 414.631ZM24.709 412.1C24.3042 412.608 23.9057 413.122 23.5137 413.642L23.1143 413.34L22.7158 413.039C23.1132 412.513 23.5175 411.992 23.9277 411.477L24.709 412.1ZM146.071 411.477C146.482 411.992 146.886 412.513 147.283 413.039L146.886 413.341L146.885 413.34L146.486 413.642C146.094 413.122 145.696 412.608 145.291 412.1L146.071 411.477ZM27.2148 409.108C26.7848 409.596 26.3601 410.089 25.9424 410.588L25.1768 409.947C25.6 409.442 26.0291 408.942 26.4648 408.447L27.2148 409.108ZM143.534 408.447C143.97 408.942 144.399 409.442 144.822 409.947L144.058 410.588C143.64 410.089 143.215 409.596 142.785 409.108L143.534 408.447ZM29.5098 405.897H29.5088L29.8672 406.247C29.4132 406.713 28.9647 407.184 28.5225 407.661L27.7891 406.981C28.0369 406.714 28.2865 406.448 28.5381 406.185L29.1514 405.549L29.5098 405.897ZM140.848 405.549C141.308 406.021 141.762 406.498 142.21 406.981L141.478 407.661C141.035 407.184 140.587 406.713 140.133 406.247L140.49 405.897L140.848 405.549ZM32.6611 403.522C32.1842 403.965 31.7127 404.413 31.2471 404.867L30.8975 404.509V404.51L30.5488 404.151C31.0206 403.691 31.4982 403.237 31.9814 402.789L32.6611 403.522ZM138.018 402.789C138.501 403.237 138.978 403.691 139.45 404.151H139.451L139.103 404.51L139.102 404.509L138.753 404.867C138.287 404.413 137.816 403.965 137.339 403.522L138.018 402.789ZM35.1641 400.437L35.5879 400.942C35.0892 401.36 34.5963 401.785 34.1084 402.215L33.4473 401.465C33.9416 401.029 34.4419 400.6 34.9473 400.177L35.1641 400.437ZM135.052 400.177C135.557 400.6 136.057 401.029 136.552 401.465L135.892 402.215C135.404 401.785 134.911 401.36 134.412 400.942L134.836 400.437L135.052 400.177ZM38.3408 398.114H38.3398L38.6416 398.514C38.1224 398.906 37.6084 399.304 37.0996 399.709L36.4766 398.928C36.9922 398.517 37.5129 398.113 38.0391 397.716L38.3408 398.114ZM131.96 397.716C132.486 398.113 133.007 398.517 133.522 398.928L132.9 399.709C132.392 399.304 131.878 398.906 131.358 398.514L131.659 398.114L131.96 397.716ZM41.8135 396.241C41.275 396.607 40.7415 396.979 40.2129 397.357L39.6309 396.545C40.1661 396.162 40.7067 395.785 41.252 395.415L41.8135 396.241ZM128.747 395.415C129.292 395.785 129.833 396.162 130.368 396.545L129.787 397.357C129.259 396.979 128.725 396.607 128.187 396.241L128.747 395.415ZM44.5781 393.278L44.8379 393.705H44.8369L45.0967 394.133C44.5403 394.471 43.9885 394.816 43.4414 395.167L43.1709 394.745V394.746L42.9014 394.325C43.4554 393.969 44.0137 393.619 44.5771 393.277L44.5781 393.278ZM125.422 393.277C125.985 393.619 126.544 393.969 127.098 394.325H127.099L126.829 394.746L126.828 394.745L126.559 395.167C126.012 394.816 125.46 394.471 124.903 394.133L125.162 393.705L125.422 393.278V393.277ZM48.2451 391.753H48.2441L48.4824 392.193C47.9095 392.503 47.3405 392.818 46.7764 393.142L46.5273 392.707V392.708L46.2793 392.274C46.8507 391.947 47.4265 391.627 48.0068 391.313L48.2451 391.753ZM121.992 391.313C122.573 391.627 123.148 391.947 123.72 392.274L123.473 392.708L123.472 392.707L123.224 393.142C122.66 392.818 122.091 392.503 121.518 392.193L121.755 391.753L121.992 391.313ZM51.9609 390.428C51.373 390.707 50.7895 390.995 50.21 391.289L49.7568 390.397C50.3439 390.1 50.9357 389.81 51.5312 389.526L51.9609 390.428ZM118.468 389.526C119.063 389.81 119.655 390.1 120.242 390.397L119.79 391.289C119.21 390.995 118.627 390.707 118.039 390.428L118.468 389.526ZM55.5254 388.843C54.9239 389.092 54.3261 389.349 53.7324 389.613L53.3262 388.7C53.9276 388.433 54.5332 388.173 55.1426 387.92L55.5254 388.843ZM114.856 387.92C115.466 388.173 116.071 388.433 116.673 388.7L116.268 389.613C115.674 389.349 115.076 389.092 114.475 388.843L114.856 387.92ZM59.166 387.44C58.5525 387.659 57.9422 387.885 57.3359 388.118L57.0742 387.44L56.9766 387.186C57.5907 386.949 58.2086 386.72 58.8301 386.499L59.166 387.44ZM111.169 386.499C111.79 386.72 112.408 386.949 113.022 387.186L112.926 387.44L112.664 388.118C112.058 387.885 111.448 387.659 110.834 387.44L111.169 386.499ZM62.7119 385.69L62.873 386.227C62.2493 386.413 61.6287 386.607 61.0117 386.81L60.8555 386.334L60.7002 385.86C61.3254 385.656 61.9539 385.458 62.5859 385.269L62.7119 385.69ZM107.413 385.269C108.045 385.458 108.674 385.656 109.299 385.86L109.145 386.335L109.144 386.334L108.988 386.81C108.371 386.607 107.751 386.413 107.127 386.227L107.288 385.69L107.413 385.269ZM66.4902 384.604L66.6377 385.203C66.0051 385.358 65.3753 385.52 64.749 385.69L64.6172 385.207V385.208L64.4863 384.726C65.1209 384.553 65.7586 384.388 66.3994 384.231L66.4902 384.604ZM103.6 384.231C104.24 384.388 104.878 384.553 105.513 384.726L105.383 385.208L105.382 385.207L105.251 385.69C104.625 385.52 103.995 385.358 103.362 385.203L103.6 384.231ZM70.2822 383.505L70.4492 384.373C69.8094 384.495 69.1722 384.626 68.5381 384.764L68.3252 383.786C68.9587 383.648 69.5952 383.518 70.2344 383.396L70.2607 383.391L70.2822 383.505ZM99.7383 383.391C100.386 383.515 101.032 383.646 101.674 383.786L101.462 384.764C100.828 384.626 100.191 384.495 99.5508 384.373L99.7178 383.505L99.7383 383.391ZM74.2256 383.219L74.2979 383.737C73.6527 383.827 73.0101 383.925 72.3701 384.03L72.207 383.044C72.8554 382.937 73.5065 382.838 74.1602 382.747L74.2256 383.219ZM95.8389 382.747C96.4925 382.838 97.1436 382.937 97.792 383.044L97.7354 383.396L97.6299 384.03C96.9899 383.925 96.3473 383.827 95.7021 383.737L95.8389 382.747ZM78.1094 382.551L78.1748 383.298C77.5256 383.355 76.8788 383.42 76.2344 383.493L76.1211 382.5C76.774 382.426 77.4292 382.36 78.0869 382.302L78.1094 382.551ZM91.9121 382.302C92.5698 382.36 93.225 382.426 93.8779 382.5L93.7656 383.493C93.1212 383.42 92.4744 383.355 91.8252 383.298L91.9121 382.302ZM82.0508 382.555H82.0498L82.0693 383.055C81.4179 383.079 80.7683 383.112 80.1211 383.152L80.0586 382.154C80.714 382.113 81.3716 382.08 82.0312 382.056L82.0508 382.555ZM87.9678 382.056C88.6275 382.08 89.285 382.113 89.9404 382.154H89.9414L89.8789 383.152C89.2317 383.112 88.5821 383.079 87.9307 383.055L87.9492 382.555L87.9678 382.056ZM85.9912 382.006L85.9863 382.506L85.9854 382.505L85.9795 383.006C85.6535 383.002 85.327 383 85 383C84.673 383 84.3465 383.002 84.0205 383.006L84.0137 382.505V382.506L84.0078 382.006C84.3381 382.002 84.6688 382 85 382C85.3309 382 85.6613 382.002 85.9912 382.006ZM92.502 280.993C92.1684 280.997 91.8344 281 91.5 281C91.1653 281 90.831 280.997 90.4971 280.993L90.5078 279.995C90.838 279.999 91.1689 280 91.5 280C91.8311 280 92.1619 279.999 92.4922 279.995L92.502 280.993ZM86.5635 279.868C87.2178 279.903 87.8743 279.931 88.5322 279.952L88.5 280.949C87.8348 280.928 87.1713 280.9 86.5098 280.864L86.5635 279.868ZM96.4629 280.367H96.4639L96.4824 280.723L96.4893 280.864C95.8277 280.9 95.1643 280.928 94.499 280.949L94.4678 279.952C95.1257 279.931 95.7822 279.903 96.4365 279.868L96.4629 280.367ZM82.625 279.57C83.2773 279.634 83.9316 279.691 84.5879 279.74L84.5498 280.237L84.5508 280.238L84.5127 280.736C83.8492 280.686 83.1878 280.628 82.5283 280.563L82.625 279.57ZM100.471 280.563C99.8112 280.628 99.1498 280.686 98.4863 280.736L98.4492 280.238V280.237L98.4121 279.74C99.0684 279.691 99.7227 279.634 100.375 279.57L100.471 280.563ZM78.7021 279.103C79.352 279.195 80.004 279.279 80.6582 279.357L80.5986 279.853L80.5996 279.854L80.5479 280.284L80.54 280.348C79.8784 280.269 79.2188 280.184 78.5615 280.091L78.6318 279.598L78.7021 279.103ZM104.368 279.598L104.438 280.091C103.78 280.184 103.121 280.269 102.459 280.348L102.452 280.284L102.4 279.854V279.853L102.342 279.357C102.996 279.279 103.648 279.195 104.298 279.103L104.368 279.598ZM74.8047 278.463C75.4507 278.583 76.0992 278.697 76.75 278.804L76.5889 279.79C75.9305 279.682 75.2747 279.566 74.6211 279.444L74.7129 278.955L74.8047 278.463ZM108.287 278.955L108.378 279.444C107.724 279.566 107.069 279.682 106.41 279.79L106.25 278.804C106.901 278.697 107.549 278.583 108.195 278.463L108.287 278.955ZM70.9395 277.654C71.5804 277.803 72.224 277.946 72.8701 278.081L72.665 279.057C72.0119 278.92 71.3608 278.778 70.7129 278.628L70.9395 277.654ZM112.286 278.628C111.638 278.778 110.987 278.92 110.334 279.057L110.13 278.081C110.776 277.946 111.42 277.803 112.061 277.654L112.286 278.628ZM67.1143 276.677C67.7482 276.854 68.3849 277.024 69.0244 277.188L68.9004 277.672L68.7764 278.154C68.1301 277.989 67.4864 277.818 66.8457 277.639L67.1143 276.677ZM116.02 277.158L116.133 277.562L116.153 277.639C115.513 277.818 114.869 277.989 114.223 278.154L114.1 277.672L113.976 277.188C114.615 277.024 115.252 276.854 115.886 276.677L116.02 277.158ZM63.3359 275.532C63.9609 275.737 64.5888 275.935 65.2197 276.126L65.0742 276.604L64.9297 277.08C64.2921 276.887 63.657 276.688 63.0254 276.481L63.3359 275.532ZM119.819 276.007L119.974 276.481C119.342 276.688 118.707 276.887 118.069 277.08L117.925 276.604V276.604L117.78 276.126C118.411 275.935 119.039 275.737 119.664 275.532L119.819 276.007ZM59.6113 274.223C60.2264 274.454 60.8454 274.679 61.4668 274.897L61.1348 275.84C60.5065 275.619 59.8817 275.39 59.2598 275.156L59.4355 274.69L59.6113 274.223ZM123.564 274.69L123.739 275.156C123.117 275.39 122.493 275.619 121.864 275.84L121.533 274.897C122.155 274.679 122.774 274.454 123.389 274.223L123.564 274.69ZM55.9482 272.75C56.5522 273.008 57.1599 273.26 57.7705 273.506L57.584 273.969L57.585 273.97L57.5205 274.13L57.3984 274.432C56.7809 274.183 56.1665 273.929 55.5557 273.668L55.752 273.21L55.9482 272.75ZM127.248 273.21L127.443 273.668C126.833 273.929 126.218 274.183 125.601 274.432L125.479 274.13L125.415 273.97V273.969L125.229 273.506C125.84 273.26 126.448 273.008 127.052 272.75L127.248 273.21ZM52.3535 271.118C52.9457 271.403 53.5414 271.681 54.1406 271.953L53.7275 272.863C53.1212 272.588 52.5181 272.307 51.9189 272.02L52.3535 271.118ZM131.08 272.02C130.481 272.307 129.878 272.588 129.271 272.863L128.859 271.953C129.459 271.681 130.054 271.403 130.646 271.118L131.08 272.02ZM48.832 269.33C49.4114 269.64 49.9942 269.945 50.5811 270.243L50.3545 270.688L50.1289 271.134C49.5352 270.832 48.9455 270.524 48.3594 270.21L48.4082 270.121L48.832 269.33ZM134.592 270.121L134.64 270.21C134.053 270.524 133.464 270.832 132.87 271.134L132.645 270.689V270.688L132.419 270.243C133.006 269.945 133.589 269.64 134.168 269.33L134.592 270.121ZM45.3916 267.391C45.9572 267.726 46.5271 268.055 47.1006 268.379L46.8545 268.813L46.8555 268.814L46.6094 269.248C46.0296 268.921 45.4536 268.588 44.8818 268.249L45.3916 267.391ZM138.117 268.249C137.545 268.588 136.969 268.921 136.39 269.248L136.145 268.814V268.813L135.899 268.379C136.473 268.055 137.043 267.726 137.608 267.391L138.117 268.249ZM42.04 265.302C42.5907 265.662 43.1461 266.016 43.7051 266.364L43.4395 266.788L43.4404 266.789L43.1758 267.212C42.6106 266.86 42.05 266.501 41.4932 266.137L42.04 265.302ZM141.506 266.137C140.949 266.501 140.388 266.86 139.823 267.212L139.56 266.789V266.788L139.295 266.364C139.854 266.016 140.409 265.662 140.96 265.302L141.506 266.137ZM38.7832 263.069C39.3178 263.453 39.8572 263.831 40.4004 264.203L39.835 265.026C39.2857 264.65 38.7407 264.268 38.2002 263.88L38.4912 263.476L38.7832 263.069ZM144.509 263.476L144.799 263.88C144.258 264.268 143.713 264.65 143.164 265.026L142.6 264.203C143.143 263.831 143.682 263.453 144.217 263.069L144.509 263.476ZM35.626 260.697C36.1435 261.104 36.6659 261.505 37.1924 261.9L36.5918 262.699C36.0593 262.299 35.5302 261.895 35.0068 261.483L35.626 260.697ZM147.992 261.483C147.469 261.895 146.94 262.299 146.407 262.699L145.808 261.9C146.334 261.505 146.857 261.104 147.374 260.697L147.992 261.483ZM32.5742 258.19C33.0736 258.619 33.5782 259.043 34.0869 259.461L33.4531 260.231C32.9387 259.809 32.4288 259.381 31.9238 258.947L32.5742 258.19ZM151.075 258.947C150.57 259.381 150.06 259.809 149.546 260.231L148.913 259.461C149.422 259.043 149.926 258.619 150.426 258.19L151.075 258.947ZM29.6348 255.554C30.115 256.004 30.6008 256.448 31.0908 256.888L30.4229 257.63C29.9277 257.186 29.4375 256.736 28.9521 256.281L29.6348 255.554ZM154.047 256.281C153.562 256.736 153.071 257.186 152.576 257.63L151.909 256.888C152.399 256.448 152.885 256.004 153.365 255.554L154.047 256.281ZM26.8125 252.791C27.2729 253.261 27.7385 253.727 28.209 254.188L27.5098 254.901C27.034 254.436 26.5632 253.965 26.0977 253.489L26.8125 252.791ZM156.901 253.489C156.436 253.965 155.965 254.436 155.489 254.901L154.791 254.188C155.261 253.727 155.727 253.261 156.188 252.791L156.901 253.489ZM24.1123 249.909C24.5519 250.399 24.9963 250.885 25.4463 251.365L24.7178 252.047C24.263 251.562 23.8134 251.071 23.3691 250.576L24.1123 249.909ZM159.63 250.576C159.186 251.071 158.736 251.562 158.281 252.047L157.554 251.365C158.004 250.885 158.448 250.399 158.888 249.909L159.63 250.576ZM21.5391 246.913C21.9571 247.422 22.3808 247.926 22.8096 248.426L22.0518 249.075C21.6182 248.57 21.1902 248.06 20.7676 247.546L21.5391 246.913ZM162.231 247.546C161.809 248.06 161.381 248.57 160.947 249.075L160.19 248.426C160.619 247.926 161.043 247.422 161.461 246.913L162.231 247.546ZM19.0996 243.808C19.4952 244.334 19.896 244.857 20.3027 245.374L19.5156 245.992C19.1043 245.469 18.6999 244.94 18.2998 244.407L19.0996 243.808ZM164.699 244.407C164.299 244.94 163.895 245.469 163.483 245.992L162.697 245.374C163.104 244.857 163.505 244.334 163.9 243.808L164.699 244.407ZM92.9844 244.989C92.6569 244.995 92.3288 245 92 245C91.6709 245 91.3424 244.995 91.0146 244.989L91.0322 243.991C91.3541 243.997 91.6767 244 92 244C92.3233 244 92.6459 243.997 92.9678 243.991L92.9844 244.989ZM87.1826 243.788C87.8211 243.845 88.4627 243.89 89.1074 243.924L89.0547 244.922C88.3979 244.887 87.7442 244.841 87.0938 244.783L87.1826 243.788ZM96.9053 244.783C96.2548 244.841 95.6011 244.887 94.9443 244.922L94.8926 243.924C95.5373 243.89 96.1789 243.845 96.8174 243.788L96.9053 244.783ZM100.767 244.08L100.801 244.298C100.157 244.401 99.5095 244.495 98.8584 244.576L98.7354 243.584C99.3746 243.504 100.011 243.414 100.643 243.312L100.767 244.08ZM83.3574 243.312C83.9895 243.414 84.6254 243.504 85.2646 243.584L85.2021 244.079L85.2031 244.08L85.167 244.363L85.1406 244.575C84.4895 244.494 83.8421 244.401 83.1982 244.298L83.2334 244.08L83.3574 243.312ZM79.5752 242.563C80.1993 242.71 80.8276 242.847 81.46 242.972L81.3623 243.462L81.2949 243.806L81.2656 243.951C80.6216 243.824 79.9815 243.686 79.3457 243.536L79.5752 242.563ZM104.653 243.536C104.018 243.686 103.377 243.824 102.733 243.951L102.637 243.463V243.462L102.54 242.972C103.172 242.847 103.801 242.71 104.425 242.563L104.653 243.536ZM75.8594 241.547C76.4707 241.738 77.0866 241.919 77.707 242.089L77.4434 243.052C76.8111 242.879 76.1835 242.695 75.5605 242.5L75.8594 241.547ZM108.29 242.023L108.378 242.306L108.438 242.5C107.816 242.695 107.188 242.879 106.556 243.052L106.293 242.089C106.913 241.919 107.529 241.738 108.141 241.547L108.29 242.023ZM16.7969 240.6C17.1692 241.143 17.5469 241.682 17.9307 242.217L17.5234 242.508L17.5244 242.509L17.1191 242.799C16.7311 242.258 16.3491 241.713 15.9727 241.164L16.7969 240.6ZM167.026 241.164C166.65 241.713 166.268 242.258 165.88 242.799L165.476 242.509V242.508L165.069 242.217C165.453 241.682 165.831 241.143 166.203 240.6L167.026 241.164ZM72.2227 240.264C72.8196 240.499 73.4222 240.723 74.0293 240.938L73.6963 241.881H73.6953C73.0771 241.663 72.4643 241.433 71.8564 241.193L72.0391 240.729L72.2227 240.264ZM111.961 240.729L112.143 241.193C111.535 241.433 110.922 241.663 110.304 241.881L110.284 241.825L109.971 240.938C110.578 240.723 111.18 240.499 111.777 240.264L111.961 240.729ZM68.6904 238.724C69.2688 239.001 69.8528 239.268 70.4424 239.525L70.2422 239.983L70.1211 240.264L70.043 240.441C69.4423 240.18 68.8471 239.907 68.2578 239.625L68.4678 239.188L68.6904 238.724ZM115.525 239.175L115.741 239.625C115.152 239.907 114.557 240.18 113.956 240.441L113.757 239.984V239.983L113.558 239.525C114.147 239.268 114.731 239.001 115.31 238.724L115.525 239.175ZM14.6357 237.295C14.984 237.854 15.3382 238.409 15.6982 238.96L14.8623 239.506C14.4982 238.949 14.1393 238.388 13.7871 237.823L14.2109 237.56L14.6357 237.295ZM168.789 237.56L169.212 237.823C168.86 238.388 168.501 238.949 168.137 239.506L167.302 238.96C167.662 238.409 168.016 237.854 168.364 237.295L168.789 237.56ZM65.2754 236.934C65.8328 237.252 66.3962 237.561 66.9658 237.859L66.7334 238.302L66.502 238.744C65.9216 238.44 65.3472 238.126 64.7793 237.802L65.0273 237.368L65.2754 236.934ZM118.973 237.368L119.22 237.802C118.652 238.126 118.077 238.44 117.497 238.744L117.297 238.361L117.266 238.303V238.302L117.034 237.859C117.604 237.561 118.167 237.252 118.725 236.934L118.973 237.368ZM61.9971 234.905C62.5307 235.263 63.0713 235.611 63.6182 235.949L63.3545 236.373L63.0918 236.798C62.535 236.453 61.9847 236.099 61.4414 235.735L61.7197 235.32L61.9971 234.905ZM122.558 235.735C122.014 236.099 121.464 236.453 120.907 236.798L120.645 236.374V236.373L120.382 235.949C120.929 235.611 121.469 235.263 122.003 234.905L122.558 235.735ZM12.6211 233.899C12.9446 234.473 13.2738 235.043 13.6094 235.608L12.75 236.117C12.4108 235.545 12.078 234.969 11.751 234.39L12.1855 234.145L12.6211 233.899ZM170.813 234.145H170.814L171.248 234.39C170.921 234.969 170.588 235.545 170.249 236.117L169.391 235.608C169.726 235.043 170.055 234.473 170.379 233.899L170.813 234.145ZM58.8721 232.647C59.379 233.042 59.893 233.427 60.4141 233.804L60.1211 234.208L60.1221 234.209L59.96 234.433L59.8291 234.613C59.2982 234.23 58.7742 233.837 58.2578 233.436L58.8721 232.647ZM125.741 233.436C125.225 233.837 124.701 234.23 124.17 234.613L124.04 234.433L123.878 234.209V234.208L123.586 233.804C124.107 233.427 124.621 233.042 125.128 232.647L125.741 233.436ZM10.7568 230.419C11.0548 231.006 11.3596 231.589 11.6699 232.168L10.7891 232.64C10.4751 232.053 10.1667 231.464 9.86523 230.87L10.3105 230.645L10.7568 230.419ZM173.134 230.87C172.832 231.464 172.524 232.053 172.21 232.64L171.33 232.168C171.64 231.589 171.945 231.006 172.243 230.419L173.134 230.87ZM55.915 230.174C56.3928 230.603 56.8782 231.024 57.3711 231.437L57.0498 231.819L57.0508 231.82L56.7295 232.203C56.2272 231.783 55.7329 231.354 55.2461 230.916L55.915 230.174ZM128.753 230.916C128.266 231.354 127.772 231.783 127.27 232.203L126.949 231.82V231.819L126.629 231.437C127.122 231.024 127.607 230.603 128.085 230.174L128.753 230.916ZM53.1406 227.496C53.587 227.959 54.0415 228.413 54.5039 228.859L53.8096 229.578C53.3385 229.123 52.8755 228.661 52.4209 228.189L53.1406 227.496ZM131.578 228.189C131.123 228.661 130.661 229.123 130.189 229.578L129.496 228.859C129.959 228.413 130.413 227.959 130.859 227.496L131.578 228.189ZM9.04688 226.859C9.31882 227.459 9.59729 228.054 9.88184 228.646L8.98047 229.08H8.97949C8.6916 228.481 8.41088 227.878 8.13574 227.271L9.04688 226.859ZM174.863 227.271C174.588 227.878 174.307 228.481 174.02 229.08L173.118 228.646C173.403 228.054 173.681 227.459 173.953 226.859L174.863 227.271ZM50.5635 224.629C50.9758 225.122 51.3968 225.607 51.8262 226.085L51.083 226.753C50.6455 226.266 50.2161 225.772 49.7959 225.27L50.1367 224.985L50.5635 224.629ZM133.819 224.949H133.82L134.203 225.27C133.783 225.772 133.354 226.266 132.916 226.753L132.174 226.085C132.603 225.607 133.024 225.122 133.437 224.629L133.819 224.949ZM7.49414 223.229C7.73955 223.84 7.99174 224.448 8.25 225.052L7.79004 225.248L7.33105 225.443C7.06987 224.833 6.81557 224.218 6.56738 223.601L7.03027 223.415L7.49414 223.229ZM175.969 223.415H175.97L176.432 223.601C176.183 224.218 175.929 224.833 175.668 225.443L175.21 225.248L174.75 225.052C175.008 224.448 175.26 223.84 175.506 223.229L175.969 223.415ZM48.1963 221.586C48.5727 222.107 48.9582 222.621 49.3525 223.128L48.957 223.435L48.7959 223.562L48.5635 223.741C48.1617 223.225 47.7692 222.701 47.3857 222.17L48.1963 221.586ZM136.208 221.878H136.209L136.613 222.17C136.23 222.701 135.837 223.225 135.436 223.741L135.042 223.436V223.435L134.647 223.128C135.042 222.621 135.427 222.107 135.804 221.586L136.208 221.878ZM6.10254 219.533C6.32106 220.155 6.54572 220.774 6.77734 221.389L6.30957 221.564L5.84277 221.739C5.60859 221.117 5.38013 220.493 5.15918 219.864L6.10254 219.533ZM177.84 219.864C177.619 220.493 177.39 221.117 177.156 221.739L176.69 221.564L176.223 221.389C176.454 220.774 176.679 220.155 176.897 219.533L177.84 219.864ZM46.0508 218.382C46.3893 218.929 46.7375 219.469 47.0947 220.003L46.2637 220.558C45.8999 220.014 45.5458 219.464 45.2012 218.907L46.0508 218.382ZM138.373 218.645L138.798 218.907C138.453 219.464 138.099 220.014 137.735 220.558L136.905 220.003C137.263 219.469 137.611 218.929 137.949 218.382L138.373 218.645ZM4.87402 215.78C5.06517 216.411 5.2633 217.039 5.46777 217.664L4.99219 217.818L4.99316 217.819L4.51758 217.974C4.31094 217.342 4.11213 216.707 3.91895 216.069L4.39551 215.925L4.87402 215.78ZM178.604 215.925L179.08 216.069C178.887 216.707 178.688 217.342 178.481 217.974L178.007 217.819V217.818L177.532 217.664C177.737 217.039 177.935 216.411 178.126 215.78L178.604 215.925ZM44.1406 215.034C44.4392 215.604 44.7483 216.167 45.0664 216.725L44.1973 217.22C43.8732 216.652 43.5591 216.077 43.2549 215.497L43.6973 215.266L44.1406 215.034ZM140.744 215.497C140.44 216.077 140.126 216.652 139.802 217.22L139.368 216.973L138.934 216.725C139.252 216.167 139.561 215.604 139.859 215.034L140.744 215.497ZM3.8125 211.976C3.97591 212.615 4.14629 213.252 4.32324 213.886L3.84082 214.02L3.36035 214.153C3.18151 213.513 3.00988 212.869 2.84473 212.223L3.32812 212.1L3.8125 211.976ZM179.672 212.1L180.154 212.223C179.989 212.869 179.818 213.513 179.639 214.153L179.158 214.021V214.02L178.677 213.886C178.854 213.252 179.024 212.615 179.188 211.976L179.672 212.1ZM42.4746 211.558C42.7316 212.147 42.9991 212.731 43.2764 213.31L42.8242 213.525L42.374 213.741C42.0916 213.152 41.8194 212.557 41.5576 211.956L42.0156 211.757L42.4746 211.558ZM142.441 211.956C142.18 212.557 141.907 213.152 141.625 213.741L141.175 213.526V213.525L140.724 213.31C141.001 212.731 141.268 212.147 141.525 211.558L142.441 211.956ZM2.91895 208.13C3.05414 208.776 3.19681 209.42 3.3457 210.061L2.37109 210.286C2.22058 209.638 2.07905 208.987 1.94238 208.334L2.91895 208.13ZM181.057 208.334C180.92 208.987 180.778 209.638 180.628 210.286L179.654 210.061C179.803 209.42 179.946 208.776 180.081 208.13L181.057 208.334ZM41.0625 207.971C41.2767 208.578 41.5012 209.18 41.7363 209.777L41.2705 209.96L40.8057 210.143C40.5663 209.535 40.3363 208.922 40.1182 208.304H40.1191L41.0625 207.971ZM143.881 208.304C143.663 208.922 143.433 209.535 143.193 210.143L142.729 209.961V209.96L142.264 209.777C142.499 209.18 142.723 208.578 142.938 207.971L143.881 208.304ZM39.9111 204.293C40.081 204.913 40.2619 205.529 40.4531 206.141L39.499 206.438C39.3042 205.816 39.1203 205.188 38.9473 204.556L39.9111 204.293ZM144.57 204.425H144.571L145.052 204.556C144.879 205.188 144.695 205.816 144.5 206.438L143.547 206.141C143.738 205.529 143.919 204.913 144.089 204.293L144.57 204.425ZM2.19629 204.25C2.30296 204.901 2.41663 205.549 2.53711 206.195L1.55469 206.378C1.43281 205.724 1.31689 205.069 1.20898 204.41L2.19629 204.25ZM181.79 204.41C181.682 205.069 181.566 205.724 181.444 206.378L180.463 206.195C180.583 205.549 180.697 204.901 180.804 204.25L181.79 204.41ZM39.0283 200.54C39.1534 201.172 39.2896 201.801 39.4365 202.425L38.9482 202.539L38.9492 202.54L38.4629 202.653C38.3132 202.018 38.1753 201.377 38.0479 200.733L38.5371 200.637L39.0283 200.54ZM145.462 200.637L145.951 200.733C145.824 201.377 145.686 202.018 145.536 202.653L145.051 202.54V202.539L144.563 202.425C144.71 201.801 144.847 201.172 144.972 200.54L145.462 200.637ZM1.64258 200.342C1.72067 200.996 1.80549 201.648 1.89746 202.298L1.40234 202.368L0.908203 202.438C0.815184 201.78 0.730343 201.121 0.651367 200.459L1.14648 200.4L1.64258 200.342ZM181.853 200.4H181.854L182.348 200.459C182.269 201.121 182.184 201.78 182.091 202.438L181.598 202.368L181.103 202.298C181.195 201.648 181.279 200.996 181.357 200.342L181.853 200.4ZM38.416 196.735C38.4955 197.375 38.5858 198.011 38.6875 198.643L37.7012 198.801C37.5976 198.157 37.5038 197.51 37.4229 196.858L38.416 196.735ZM146.079 196.797H146.08L146.568 196.858H146.575C146.494 197.509 146.401 198.157 146.298 198.801L145.312 198.643C145.414 198.011 145.504 197.375 145.584 196.735L146.079 196.797ZM1.25977 196.412C1.30932 197.068 1.36621 197.723 1.42969 198.375L0.930664 198.423L0.931641 198.424L0.435547 198.471C0.371375 197.811 0.31279 197.15 0.262695 196.486L1.25977 196.412ZM182.237 196.449H182.238L182.736 196.486C182.686 197.15 182.628 197.811 182.563 198.471L182.068 198.424V198.423L181.57 198.375C181.634 197.723 181.691 197.068 181.74 196.412L182.237 196.449ZM38.0762 192.893C38.1102 193.537 38.1555 194.179 38.2119 194.817L37.2158 194.905C37.1583 194.255 37.1118 193.601 37.0771 192.944L38.0762 192.893ZM146.922 192.944C146.887 193.601 146.841 194.255 146.783 194.905L145.788 194.817C145.845 194.179 145.89 193.537 145.924 192.893L146.922 192.944ZM1.04785 192.468C1.06905 193.126 1.09765 193.782 1.13281 194.437L0.631836 194.463L0.632812 194.464L0.134766 194.489C0.0992151 193.828 0.0712268 193.164 0.0498047 192.499L1.04785 192.468ZM182.949 192.499C182.928 193.164 182.9 193.828 182.864 194.489L182.367 194.464V194.463L181.868 194.437C181.903 193.782 181.931 193.126 181.952 192.468L182.949 192.499ZM38.0088 189.032C38.0031 189.354 38 189.677 38 190C38 190.323 38.0031 190.646 38.0088 190.968L37.0098 190.984C37.004 190.657 37 190.329 37 190C37 189.671 37.004 189.342 37.0098 189.015L38.0088 189.032ZM147 190C147 190.329 146.995 190.657 146.989 190.984L145.991 190.968C145.997 190.646 146 190.323 146 190C146 189.677 145.997 189.354 145.991 189.032L146.989 189.015C146.995 189.342 147 189.671 147 190ZM1.00488 188.508C1.00134 188.838 1 189.169 1 189.5C1 189.831 1.00134 190.162 1.00488 190.492L0.00585938 190.502C0.00228059 190.168 0 189.834 0 189.5C0 189.165 0.00227361 188.831 0.00585938 188.497L1.00488 188.508ZM183 189.5C183 189.834 182.997 190.168 182.993 190.502L181.995 190.492C181.999 190.162 182 189.831 182 189.5C182 189.169 181.999 188.838 181.995 188.508L182.993 188.497C182.997 188.831 183 189.165 183 189.5ZM38.2119 185.183C38.1555 185.821 38.1102 186.463 38.0762 187.107L37.0771 187.055C37.0998 186.625 37.1276 186.196 37.1602 185.769L37.2158 185.094L38.2119 185.183ZM146.783 185.094C146.841 185.744 146.887 186.398 146.922 187.055L145.924 187.107C145.89 186.463 145.845 185.821 145.788 185.183L146.783 185.094ZM1.13281 184.563C1.09765 185.218 1.06905 185.874 1.04785 186.532L0.0498047 186.5C0.0712338 185.835 0.0992081 185.171 0.134766 184.51L1.13281 184.563ZM182.864 184.51C182.9 185.171 182.928 185.835 182.949 186.5L181.952 186.532C181.931 185.874 181.903 185.218 181.868 184.563L182.367 184.536L182.864 184.51ZM38.6875 181.357C38.5858 181.989 38.4955 182.625 38.416 183.265L37.9199 183.202V183.203L37.4238 183.141C37.5048 182.49 37.5976 181.842 37.7012 181.198L38.6875 181.357ZM146.298 181.198C146.401 181.842 146.495 182.489 146.576 183.141V183.142L145.584 183.265C145.504 182.625 145.414 181.989 145.312 181.357L146.298 181.198ZM0.931641 180.576H0.930664L1.42969 180.625C1.36621 181.277 1.30932 181.932 1.25977 182.588L0.761719 182.55V182.551L0.262695 182.513C0.312797 181.849 0.371368 181.188 0.435547 180.528L0.931641 180.576ZM182.563 180.528C182.628 181.188 182.686 181.849 182.736 182.513H182.737L182.238 182.551L182.237 182.55L181.74 182.588C181.691 181.932 181.634 181.277 181.57 180.625L182.068 180.576L182.563 180.528ZM38.9492 177.46H38.9482L39.4365 177.575C39.2896 178.199 39.1534 178.828 39.0283 179.46L38.5371 179.362L38.0479 179.266C38.1753 178.622 38.3132 177.981 38.4629 177.346L38.9492 177.46ZM145.536 177.346C145.686 177.981 145.824 178.622 145.951 179.266L145.463 179.363L145.462 179.362L144.972 179.46C144.847 178.828 144.71 178.199 144.563 177.575L145.536 177.346ZM1.89746 176.702C1.80549 177.352 1.72067 178.004 1.64258 178.658L1.14648 178.599V178.6L0.651367 178.54C0.73035 177.878 0.815177 177.219 0.908203 176.562L1.89746 176.702ZM182.091 176.562C182.184 177.219 182.269 177.878 182.348 178.54L181.854 178.6L181.853 178.599L181.357 178.658C181.279 178.004 181.195 177.352 181.103 176.702L182.091 176.562ZM39.9766 173.71H39.9756L40.4531 173.859C40.2619 174.471 40.081 175.087 39.9111 175.707L38.9473 175.443C39.1126 174.84 39.2875 174.24 39.4727 173.645L39.499 173.561L39.9766 173.71ZM144.5 173.561C144.695 174.183 144.879 174.811 145.052 175.443L144.089 175.707C143.919 175.087 143.738 174.471 143.547 173.859L144.5 173.561ZM2.53711 172.805C2.41663 173.451 2.30296 174.099 2.19629 174.75L1.20898 174.589C1.31689 173.93 1.43281 173.275 1.55469 172.621L2.53711 172.805ZM181.444 172.621C181.566 173.275 181.682 173.93 181.79 174.589H181.791L180.804 174.75C180.697 174.099 180.583 173.451 180.463 172.805L181.444 172.621ZM41.2715 170.039H41.2705L41.7363 170.223C41.5012 170.82 41.2767 171.422 41.0625 172.029L40.1191 171.696L40.1182 171.695C40.3363 171.077 40.5663 170.464 40.8057 169.856L41.2715 170.039ZM143.193 169.856C143.433 170.464 143.663 171.077 143.881 171.695V171.696L142.938 172.029C142.723 171.422 142.499 170.82 142.264 170.223L142.729 170.039L143.193 169.856ZM3.3457 168.939C3.19681 169.58 3.05414 170.224 2.91895 170.87L1.94238 170.665C2.07906 170.012 2.22057 169.361 2.37109 168.713L3.3457 168.939ZM180.628 168.713C180.778 169.361 180.92 170.012 181.057 170.665L180.081 170.87C179.946 170.224 179.803 169.58 179.654 168.939L180.628 168.713ZM42.8252 166.474H42.8242L43.2764 166.69C42.9991 167.269 42.7316 167.853 42.4746 168.442L42.0156 168.242L41.5576 168.043C41.8195 167.442 42.0916 166.847 42.374 166.258L42.8252 166.474ZM141.625 166.258C141.907 166.847 142.18 167.442 142.441 168.043L141.984 168.243L141.983 168.242L141.525 168.442C141.268 167.853 141.001 167.269 140.724 166.69L141.175 166.474L141.625 166.258ZM3.8418 164.979H3.84082L4.32324 165.114C4.14629 165.748 3.97591 166.385 3.8125 167.024L2.84473 166.776C3.00989 166.13 3.18151 165.486 3.36035 164.846L3.8418 164.979ZM179.639 164.846C179.818 165.486 179.989 166.13 180.154 166.776L179.188 167.024C179.024 166.385 178.854 165.748 178.677 165.114L179.158 164.979L179.639 164.846ZM45.0664 163.275C44.7483 163.833 44.4392 164.396 44.1406 164.966L43.6973 164.733L43.2549 164.502C43.5591 163.922 43.8732 163.347 44.1973 162.779L45.0664 163.275ZM139.802 162.779C140.126 163.347 140.44 163.922 140.744 164.502L140.303 164.734L140.302 164.733L139.859 164.966C139.561 164.396 139.252 163.833 138.934 163.275L139.802 162.779ZM5.46777 161.336C5.2633 161.961 5.06517 162.589 4.87402 163.22L4.39551 163.074L3.91895 162.93C4.11213 162.292 4.31093 161.657 4.51758 161.025L5.46777 161.336ZM178.481 161.025C178.688 161.657 178.887 162.292 179.08 162.93L178.604 163.075L178.604 163.074L178.126 163.22C177.935 162.589 177.737 161.961 177.532 161.336L178.481 161.025ZM47.0947 159.997C46.7375 160.531 46.3893 161.071 46.0508 161.618L45.626 161.354L45.2012 161.092C45.5458 160.535 45.8999 159.985 46.2637 159.441L47.0947 159.997ZM137.735 159.441C138.099 159.985 138.453 160.535 138.798 161.092L138.374 161.355L138.373 161.354L137.949 161.618C137.611 161.071 137.263 160.531 136.905 159.997L137.735 159.441ZM6.77734 157.611C6.54572 158.226 6.32106 158.845 6.10254 159.467L5.15918 159.135C5.38013 158.506 5.60858 157.882 5.84277 157.26L6.77734 157.611ZM177.156 157.26C177.39 157.882 177.619 158.506 177.84 159.135H177.841L176.897 159.467C176.679 158.845 176.454 158.226 176.223 157.611L177.156 157.26ZM48.958 156.564H48.957L49.3525 156.872C48.9582 157.379 48.5727 157.893 48.1963 158.414L47.791 158.121V158.122L47.3857 157.829C47.7692 157.298 48.1617 156.774 48.5635 156.258L48.958 156.564ZM135.436 156.258C135.837 156.774 136.23 157.298 136.613 157.829L136.209 158.122L136.208 158.121L135.804 158.414C135.427 157.893 135.042 157.379 134.647 156.872L135.042 156.564L135.436 156.258ZM8.25 153.948C7.99175 154.552 7.73955 155.16 7.49414 155.771L7.03027 155.584V155.585L6.56738 155.398C6.81557 154.781 7.06987 154.166 7.33105 153.556L8.25 153.948ZM175.668 153.556C175.929 154.166 176.183 154.781 176.432 155.398L175.97 155.585L175.969 155.584L175.506 155.771C175.26 155.16 175.008 154.552 174.75 153.948L175.668 153.556ZM51.8262 153.915C51.3968 154.393 50.9758 154.878 50.5635 155.371L50.1797 155.05V155.051L49.7959 154.729C50.2161 154.227 50.6455 153.733 51.083 153.246L51.8262 153.915ZM132.916 153.246C133.354 153.733 133.783 154.227 134.203 154.729L133.82 155.051L133.819 155.05L133.437 155.371C133.024 154.878 132.603 154.393 132.174 153.915L132.916 153.246ZM54.5039 151.141C54.0415 151.587 53.587 152.041 53.1406 152.504L52.4209 151.81C52.8755 151.339 53.3385 150.876 53.8096 150.421L54.5039 151.141ZM130.189 150.421C130.661 150.876 131.123 151.339 131.578 151.81L130.859 152.504C130.413 152.041 129.959 151.587 129.496 151.141L130.189 150.421ZM8.98047 149.92L9.88184 150.354C9.59729 150.946 9.31882 151.541 9.04688 152.141L8.13574 151.728C8.41089 151.121 8.69159 150.518 8.97949 149.919L8.98047 149.92ZM174.02 149.919C174.307 150.518 174.588 151.121 174.863 151.728L173.953 152.141C173.681 151.541 173.403 150.946 173.118 150.354L174.02 149.92V149.919ZM56.9463 148.056L57.3711 148.563C56.8782 148.976 56.3928 149.397 55.915 149.826L55.2461 149.083C55.7329 148.645 56.2272 148.216 56.7295 147.796L56.9463 148.056ZM127.27 147.796C127.772 148.216 128.266 148.645 128.753 149.083L128.085 149.826C127.607 149.397 127.122 148.976 126.629 148.563L127.27 147.796ZM11.6699 146.832C11.3596 147.411 11.0548 147.994 10.7568 148.581L10.3105 148.354L9.86523 148.129C10.1667 147.535 10.4751 146.946 10.7891 146.359L11.6699 146.832ZM172.21 146.359C172.524 146.946 172.832 147.535 173.134 148.129L172.689 148.355L172.688 148.354L172.243 148.581C171.945 147.994 171.64 147.411 171.33 146.832L172.21 146.359ZM60.1221 145.791H60.1211L60.4141 146.196C59.893 146.573 59.379 146.958 58.8721 147.353L58.5645 146.957L58.2578 146.563C58.7742 146.162 59.2982 145.769 59.8291 145.386L60.1221 145.791ZM124.17 145.386C124.701 145.769 125.225 146.162 125.741 146.563L125.436 146.958L125.435 146.957L125.128 147.353C124.621 146.958 124.107 146.573 123.586 146.196L124.17 145.386ZM13.6094 143.392C13.2738 143.957 12.9446 144.527 12.6211 145.101L12.1855 144.854V144.855L11.751 144.609C12.0552 144.07 12.3639 143.533 12.6787 143.001L12.75 142.882L13.6094 143.392ZM170.249 142.882C170.588 143.454 170.921 144.03 171.248 144.609L170.814 144.855L170.813 144.854L170.379 145.101C170.055 144.527 169.726 143.957 169.391 143.392L170.249 142.882ZM63.3555 143.626H63.3545L63.6182 144.051C63.0713 144.389 62.5307 144.737 61.9971 145.095L61.4414 144.264C61.9847 143.9 62.535 143.546 63.0918 143.201L63.3555 143.626ZM120.907 143.201C121.464 143.546 122.014 143.9 122.558 144.264L122.003 145.095C121.469 144.737 120.929 144.389 120.382 144.051L120.907 143.201ZM66.7344 141.697H66.7334L66.9658 142.141C66.3962 142.439 65.8328 142.748 65.2754 143.066L64.7793 142.197C65.3472 141.873 65.9216 141.559 66.502 141.255L66.7344 141.697ZM117.497 141.255C118.077 141.559 118.652 141.873 119.22 142.197L118.725 143.066C118.167 142.748 117.604 142.439 117.034 142.141L117.266 141.697L117.497 141.255ZM15.6982 140.04C15.3382 140.591 14.984 141.146 14.6357 141.705L14.2109 141.439V141.44L13.7871 141.176C14.1393 140.611 14.4982 140.05 14.8623 139.493L15.6982 140.04ZM168.137 139.493C168.501 140.05 168.86 140.611 169.212 141.176H169.213L168.789 141.44L168.788 141.439L168.364 141.705C168.016 141.146 167.662 140.591 167.302 140.04L168.137 139.493ZM70.2432 140.016H70.2422L70.4424 140.475C69.8528 140.732 69.2688 140.999 68.6904 141.276L68.2578 140.374C68.8471 140.092 69.4423 139.819 70.043 139.558L70.2432 140.016ZM113.956 139.558C114.557 139.819 115.152 140.092 115.741 140.374L115.31 141.276C114.731 140.999 114.147 140.732 113.558 140.475L113.757 140.016L113.956 139.558ZM73.6963 138.119L74.0293 139.062C73.4222 139.277 72.8196 139.501 72.2227 139.736L72.0391 139.271L71.8564 138.806C72.4643 138.566 73.0771 138.336 73.6953 138.118L73.6963 138.119ZM110.304 138.118C110.922 138.336 111.535 138.566 112.143 138.806L111.961 139.271L111.96 139.271L111.777 139.736C111.18 139.501 110.578 139.277 109.971 139.062L110.304 138.119V138.118ZM77.9473 136.921L78.0107 137.415C77.869 137.434 77.7269 137.449 77.585 137.467L77.707 137.911C77.0866 138.081 76.4707 138.262 75.8594 138.453L75.6777 137.875L75.5605 137.499C75.7018 137.455 75.8436 137.412 75.9854 137.369L75.9639 137.15V137.149L75.9141 136.653C76.5731 136.587 77.2295 136.51 77.8828 136.425L77.9473 136.921ZM106.556 136.947C107.188 137.12 107.816 137.304 108.438 137.499L108.322 137.875L108.141 138.453C107.529 138.262 106.913 138.081 106.293 137.911L106.556 136.947ZM17.5244 136.491H17.5234L17.9307 136.783C17.5469 137.318 17.1692 137.857 16.7969 138.4L15.9727 137.835C16.3491 137.286 16.7311 136.741 17.1191 136.2L17.5244 136.491ZM165.88 136.2C166.268 136.741 166.65 137.286 167.026 137.835L166.203 138.4C165.831 137.857 165.453 137.318 165.069 136.783L165.476 136.491L165.88 136.2ZM70 137.493H70.001L70.0059 137.86L70.0068 137.991C69.6718 137.996 69.3362 138 69 138C68.6635 138 68.3276 137.996 67.9922 137.991L68.0068 136.993C68.3373 136.998 68.6684 137 69 137C69.3316 137 69.6627 136.998 69.9932 136.993L70 137.493ZM64.0527 136.823C64.7092 136.87 65.3687 136.908 66.0303 136.937L65.9873 137.934C65.3161 137.905 64.6475 137.866 63.9814 137.818L64.001 137.55L64.0527 136.823ZM73.999 137.55L74.0176 137.818C73.3515 137.866 72.6829 137.905 72.0117 137.934L71.9697 136.937C72.6313 136.908 73.2908 136.87 73.9473 136.823L73.999 137.55ZM60.1172 136.425C60.7705 136.51 61.4269 136.587 62.0859 136.653L62.0352 137.149L62.0361 137.15L61.9854 137.646C61.3168 137.579 60.6511 137.501 59.9883 137.415L60.0527 136.921L60.1172 136.425ZM81.915 136.47L81.9736 136.781C81.7927 136.816 81.6111 136.847 81.4297 136.88L81.46 137.028C80.8276 137.153 80.1993 137.29 79.5752 137.437L79.3457 136.463C79.5201 136.422 79.6951 136.383 79.8701 136.344L79.8379 136.142C80.4909 136.037 81.1415 135.923 81.7881 135.8L81.915 136.47ZM102.733 136.048C103.377 136.175 104.018 136.313 104.653 136.463L104.551 136.905L104.425 137.437C103.801 137.29 103.172 137.153 102.54 137.028L102.637 136.537L102.733 136.048ZM56.2119 135.8C56.8585 135.923 57.5091 136.037 58.1621 136.142L58.0039 137.127C57.3412 137.021 56.6816 136.906 56.0254 136.781L56.085 136.47L56.2119 135.8ZM85.8916 135.915C85.6692 135.971 85.4459 136.024 85.2227 136.078L85.2646 136.416C84.6254 136.496 83.9895 136.586 83.3574 136.688L83.1982 135.701C83.3889 135.67 83.5802 135.642 83.7715 135.613L83.7256 135.401C84.3702 135.259 85.0118 135.108 85.6494 134.947L85.8916 135.915ZM98.8584 135.424C99.5095 135.505 100.157 135.598 100.801 135.701L100.643 136.688C100.011 136.586 99.3746 136.496 98.7354 136.416L98.8584 135.424ZM52.3516 134.947C52.989 135.108 53.63 135.259 54.2744 135.401L54.0596 136.377C53.4052 136.233 52.7546 136.078 52.1074 135.915L52.3516 134.947ZM89.7539 134.822C89.467 134.913 89.179 135 88.8906 135.087C88.9453 135.084 89 135.08 89.0547 135.077L89.1074 136.076C88.4627 136.11 87.8211 136.155 87.1826 136.212L87.0938 135.216C87.3173 135.196 87.5413 135.178 87.7656 135.161L87.6973 134.917V134.916L87.5615 134.437C88.1963 134.257 88.8271 134.068 89.4541 133.87L89.7539 134.822ZM94.9443 135.077C95.6011 135.112 96.2548 135.158 96.9053 135.216L96.8174 136.212C96.1789 136.155 95.5373 136.11 94.8926 136.076L94.9443 135.077ZM92.9844 135.01L92.9678 136.009C92.6459 136.003 92.3233 136 92 136C91.6767 136 91.3541 136.003 91.0322 136.009L91.0146 135.01C91.3424 135.004 91.6709 135 92 135C92.3288 135 92.6569 135.004 92.9844 135.01ZM48.5459 133.87C49.1729 134.068 49.8037 134.257 50.4385 134.437L50.3018 134.916L50.3027 134.917L50.166 135.397C49.5217 135.215 48.8816 135.023 48.2451 134.822L48.5459 133.87ZM19.5166 133.008L20.3027 133.626C19.896 134.143 19.4952 134.666 19.0996 135.192L18.2998 134.592C18.6999 134.059 19.1043 133.53 19.5156 133.007L19.5166 133.008ZM163.483 133.007C163.895 133.53 164.299 134.059 164.699 134.592L163.9 135.192C163.505 134.666 163.104 134.143 162.697 133.626L163.483 133.008V133.007ZM44.8086 132.571C45.4237 132.805 46.0435 133.031 46.667 133.248L46.3379 134.19C45.7052 133.971 45.0763 133.743 44.4521 133.505L44.5342 133.291L44.8086 132.571ZM93.5469 133.505C92.9227 133.743 92.2939 133.971 91.6611 134.19L91.334 133.248C91.9573 133.031 92.5764 132.805 93.1914 132.571L93.5469 133.505ZM41.1543 131.056C41.7552 131.326 42.3607 131.588 42.9707 131.841L42.5879 132.763C41.9688 132.506 41.354 132.241 40.7441 131.967L41.1543 131.056ZM97.2549 131.967C96.645 132.241 96.0303 132.506 95.4111 132.763L95.2207 132.303L95.0293 131.841C95.6393 131.588 96.2448 131.326 96.8457 131.056L97.2549 131.967ZM22.8096 130.574C22.3808 131.074 21.9571 131.578 21.5391 132.087L20.7676 131.453C21.1902 130.939 21.6182 130.429 22.0518 129.924L22.8096 130.574ZM160.947 129.924C161.381 130.429 161.809 130.939 162.231 131.453L161.461 132.087C161.043 131.578 160.619 131.074 160.19 130.574L160.947 129.924ZM37.5957 129.33C38.1799 129.635 38.7693 129.932 39.3633 130.22L38.9346 131.103L38.9268 131.118C38.3237 130.826 37.7259 130.524 37.1328 130.215L37.3643 129.773L37.5957 129.33ZM100.636 129.773L100.866 130.215C100.273 130.524 99.6753 130.826 99.0723 131.118L99.0654 131.103L98.6367 130.22C99.2307 129.932 99.8201 129.635 100.404 129.33L100.636 129.773ZM34.1436 127.399C34.7088 127.738 35.2797 128.068 35.8555 128.39L35.3672 129.262C34.7827 128.935 34.2037 128.599 33.6299 128.256L34.1436 127.399ZM104.369 128.256C103.795 128.599 103.216 128.935 102.632 129.262L102.145 128.39C102.72 128.068 103.291 127.738 103.856 127.399L104.369 128.256ZM25.082 127.293H25.0811L25.4463 127.635C24.9963 128.115 24.5519 128.601 24.1123 129.091L23.3691 128.423C23.8134 127.928 24.263 127.438 24.7178 126.952L25.082 127.293ZM158.281 126.952C158.736 127.438 159.186 127.928 159.63 128.423L158.888 129.091C158.448 128.601 158.004 128.115 157.554 127.635L157.918 127.293L158.281 126.952ZM30.8086 125.271C31.3533 125.641 31.9041 126.004 32.46 126.358L32.1904 126.779L31.9219 127.2C31.358 126.84 30.7996 126.472 30.2471 126.097L30.5273 125.684L30.8086 125.271ZM107.752 126.097C107.199 126.472 106.641 126.84 106.077 127.2L105.809 126.78V126.779L105.54 126.358C106.096 126.004 106.647 125.641 107.191 125.271L107.752 126.097ZM27.6035 122.951C28.1262 123.353 28.655 123.747 29.1895 124.134L28.8955 124.538L28.8965 124.539L28.7178 124.785L28.6025 124.942C28.2821 124.711 27.9639 124.476 27.6475 124.239L28.209 124.812C27.7385 125.273 27.2729 125.739 26.8125 126.209L26.0977 125.51C26.3304 125.272 26.5644 125.035 26.7998 124.8L27.4883 124.118C27.323 123.994 27.1572 123.87 26.9932 123.744H26.9941L27.6035 122.951ZM155.489 124.098C155.965 124.563 156.436 125.034 156.901 125.51H156.902L156.188 126.209C155.727 125.739 155.261 125.273 154.791 124.812L155.489 124.098ZM111.006 123.744C110.476 124.152 109.939 124.55 109.396 124.942L108.811 124.134C109.345 123.747 109.874 123.353 110.396 122.951L111.006 123.744ZM31.0908 122.112C30.6008 122.552 30.115 122.996 29.6348 123.446L28.9521 122.718C29.4375 122.263 29.9277 121.813 30.4229 121.369L31.0908 122.112ZM152.576 121.369C153.071 121.813 153.562 122.263 154.047 122.718L153.365 123.446C152.885 122.996 152.399 122.552 151.909 122.112L152.576 121.369ZM24.5371 120.451C25.0358 120.883 25.5415 121.307 26.0527 121.724L25.4199 122.497C24.9014 122.074 24.3886 121.645 23.8828 121.207L24.5371 120.451ZM114.116 121.206C113.61 121.644 113.098 122.074 112.579 122.497L111.947 121.724C112.458 121.307 112.964 120.883 113.463 120.451L114.116 121.206ZM34.0869 119.539C33.5781 119.957 33.0736 120.381 32.5742 120.81L31.9238 120.052C32.4288 119.618 32.9387 119.19 33.4531 118.768L34.0869 119.539ZM149.546 118.768C150.06 119.19 150.57 119.618 151.075 120.052L150.426 120.81C149.926 120.381 149.422 119.957 148.913 119.539L149.546 118.768ZM21.6211 117.777C22.0941 118.237 22.5744 118.69 23.0605 119.136L22.3848 119.871C21.8916 119.419 21.4046 118.96 20.9248 118.494L21.6211 117.777ZM117.074 118.494C116.594 118.96 116.107 119.419 115.614 119.871L114.94 119.136C115.427 118.69 115.906 118.237 116.379 117.777L117.074 118.494ZM37.1924 117.1C36.6659 117.495 36.1435 117.896 35.626 118.303L35.0078 117.517L35.0068 117.516C35.5302 117.104 36.0593 116.7 36.5918 116.3L37.1924 117.1ZM146.407 116.3C146.94 116.7 147.469 117.104 147.992 117.516V117.517L147.374 118.303C146.857 117.896 146.334 117.495 145.808 117.1L146.407 116.3ZM18.8643 114.94C19.3099 115.427 19.7632 115.906 20.2227 116.379L19.5049 117.074C19.0388 116.594 18.5801 116.107 18.1279 115.614L18.8643 114.94ZM119.871 115.614C119.419 116.107 118.96 116.594 118.494 117.074L117.777 116.379C118.237 115.906 118.69 115.427 119.136 114.94L119.871 115.614ZM40.4004 114.797C39.8572 115.169 39.3178 115.547 38.7832 115.931L38.4912 115.523V115.524L38.2002 115.119C38.7407 114.731 39.2857 114.349 39.835 113.973L40.4004 114.797ZM143.164 113.973C143.713 114.349 144.258 114.731 144.799 115.119L144.509 115.524L144.508 115.523L144.217 115.931C143.682 115.547 143.143 115.169 142.6 114.797L143.164 113.973ZM16.2764 111.947C16.6933 112.458 17.1175 112.964 17.5488 113.463L16.793 114.116C16.3553 113.61 15.925 113.098 15.502 112.579L16.2764 111.947ZM122.497 112.579C122.074 113.098 121.645 113.61 121.207 114.116L120.829 113.79V113.789L120.451 113.463C120.883 112.964 121.307 112.458 121.724 111.947L122.497 112.579ZM43.7051 112.636C43.1461 112.984 42.5907 113.338 42.04 113.698L41.4932 112.862C42.0298 112.511 42.5698 112.165 43.1143 111.825L43.1758 111.787L43.7051 112.636ZM139.823 111.787C140.388 112.139 140.949 112.498 141.506 112.862L140.96 113.698C140.409 113.338 139.854 112.984 139.295 112.636L139.823 111.787ZM46.8555 110.186H46.8545L47.1006 110.621C46.5271 110.945 45.9572 111.274 45.3916 111.609L44.8818 110.75C45.4536 110.411 46.0296 110.078 46.6094 109.751L46.8555 110.186ZM136.39 109.751C136.969 110.078 137.545 110.411 138.117 110.75H138.118L137.608 111.609C137.043 111.274 136.473 110.945 135.899 110.621L136.145 110.186L136.39 109.751ZM13.8662 108.811C14.2528 109.345 14.6472 109.874 15.0488 110.396L14.2559 111.006H14.2549C13.8475 110.476 13.4488 109.939 13.0566 109.396L13.8662 108.811ZM124.538 109.104H124.539L124.54 109.104L124.942 109.396C124.55 109.939 124.152 110.476 123.744 111.006L122.951 110.396C123.353 109.874 123.747 109.345 124.134 108.811L124.538 109.104ZM50.3555 108.311H50.3545L50.5811 108.757C49.9942 109.055 49.4114 109.36 48.832 109.67L48.3594 108.789C48.9455 108.475 49.5352 108.167 50.1289 107.865L50.3555 108.311ZM132.87 107.865C133.464 108.167 134.053 108.475 134.64 108.789L134.168 109.67C133.589 109.36 133.006 109.055 132.419 108.757L132.645 108.311L132.87 107.865ZM54.1406 107.047C53.5414 107.319 52.9457 107.597 52.3535 107.882L51.9199 106.98L51.9189 106.979C52.5181 106.692 53.1213 106.411 53.7275 106.136L54.1406 107.047ZM129.271 106.136C129.878 106.411 130.481 106.692 131.08 106.979V106.98L130.646 107.882C130.054 107.597 129.459 107.319 128.859 107.047L129.271 106.136ZM11.6416 105.54C11.9965 106.096 12.3591 106.647 12.7295 107.191L12.3154 107.472L12.1602 107.578L11.9023 107.752C11.5266 107.199 11.1588 106.641 10.7988 106.077L11.2197 105.809L11.6416 105.54ZM125.601 104.567C126.218 104.816 126.833 105.07 127.443 105.331L127.141 106.039L127.2 106.077C126.84 106.641 126.472 107.199 126.097 107.752L125.684 107.473V107.472L125.271 107.191C125.568 106.754 125.858 106.312 126.146 105.867C125.841 105.741 125.535 105.617 125.229 105.494L125.601 104.567ZM57.7705 105.494C57.1599 105.74 56.5522 105.992 55.9482 106.25L55.5557 105.331C56.1665 105.07 56.7809 104.816 57.3984 104.567L57.7705 105.494ZM61.4668 104.103C60.8454 104.321 60.2264 104.546 59.6113 104.777L59.2598 103.843C59.8817 103.609 60.5065 103.38 61.1348 103.159L61.4668 104.103ZM121.864 103.159C122.493 103.38 123.117 103.609 123.739 103.843L123.389 104.777C122.774 104.546 122.155 104.321 121.533 104.103L121.864 103.159ZM9.61035 102.145C9.93236 102.72 10.2625 103.291 10.6006 103.856L9.74316 104.369C9.3999 103.795 9.06421 103.216 8.7373 102.632L9.61035 102.145ZM129.262 102.632C128.935 103.216 128.599 103.795 128.256 104.369L127.399 103.856C127.738 103.291 128.068 102.72 128.39 102.145L129.262 102.632ZM65.2197 102.874C64.5888 103.065 63.9609 103.263 63.3359 103.468L63.0811 102.689L63.0254 102.518C63.657 102.311 64.2921 102.112 64.9297 101.919L65.2197 102.874ZM118.069 101.919C118.707 102.112 119.342 102.311 119.974 102.518L119.919 102.689L119.664 103.468C119.039 103.263 118.411 103.065 117.78 102.874L118.069 101.919ZM69.9678 100.983C69.6463 100.993 69.3238 101 69 101C68.9381 101 68.8763 100.997 68.8145 100.996L69.0244 101.812C68.3849 101.976 67.7482 102.146 67.1143 102.323L66.9639 101.786L66.8457 101.36C67.3064 101.232 67.7688 101.108 68.2324 100.986C68.1653 100.985 68.0982 100.985 68.0312 100.983L68.0605 99.9863C68.3724 99.9956 68.6858 100 69 100C69.3142 100 69.6276 99.9956 69.9395 99.9863L69.9678 100.983ZM114.223 100.845C114.869 101.01 115.513 101.182 116.153 101.36L116.036 101.786L115.886 102.323C115.252 102.146 114.615 101.976 113.976 101.812L114.223 100.845ZM73.8154 100.639C73.4912 100.688 73.1652 100.73 72.8379 100.769L72.8701 100.919C72.224 101.054 71.5804 101.197 70.9395 101.346L70.7129 100.371C71.0843 100.285 71.4568 100.201 71.8301 100.12L71.8086 99.875C72.4337 99.8189 73.0533 99.744 73.667 99.6514L73.8154 100.639ZM110.334 99.9424C110.987 100.079 111.638 100.221 112.286 100.371L112.061 101.346C111.42 101.197 110.776 101.054 110.13 100.919L110.334 99.9424ZM64.333 99.6514C64.9467 99.744 65.5663 99.8189 66.1914 99.875L66.1025 100.867C65.4572 100.809 64.8173 100.734 64.1836 100.639L64.333 99.6514ZM7.78027 98.6367C8.06837 99.2307 8.36519 99.8201 8.66992 100.404L7.78418 100.866C7.47482 100.273 7.17333 99.6753 6.88086 99.0723L7.78027 98.6367ZM131.118 99.0723C130.826 99.6753 130.524 100.273 130.215 100.866L129.33 100.404C129.635 99.8201 129.932 99.2307 130.22 98.6367L131.118 99.0723ZM77.4619 99.3506H77.4629L77.5957 99.8301C77.3077 99.9102 77.0177 99.9845 76.7266 100.057L76.75 100.196C76.0992 100.303 75.4507 100.417 74.8047 100.537L74.6211 99.5547C74.922 99.4986 75.2235 99.444 75.5254 99.3906L75.5098 99.3154C76.1228 99.1844 76.7292 99.0358 77.3281 98.8691L77.4619 99.3506ZM106.41 99.209C107.069 99.3169 107.724 99.4328 108.378 99.5547L108.195 100.537C107.549 100.417 106.901 100.303 106.25 100.196L106.41 99.209ZM60.6719 98.8691C61.2708 99.0358 61.8772 99.1844 62.4902 99.3154L62.2812 100.291C61.6481 100.156 61.022 100.002 60.4033 99.8301L60.5371 99.3506L60.6719 98.8691ZM81.0576 98.1104L81.248 98.5693C81.0211 98.6634 80.792 98.7528 80.5625 98.8418L80.5889 99.0625L80.6582 99.6426C80.004 99.7207 79.352 99.8055 78.7021 99.8975L78.5615 98.9082C78.803 98.874 79.045 98.8417 79.2871 98.8096L79.1162 98.3125C79.7078 98.1084 80.2914 97.8868 80.8662 97.6484L81.0576 98.1104ZM102.459 98.6514C103.121 98.7303 103.78 98.8152 104.438 98.9082L104.298 99.8975C103.648 99.8055 102.996 99.7207 102.342 99.6426L102.411 99.0625L102.459 98.6514ZM84.5303 98.5L84.5879 99.2598C83.9316 99.3093 83.2773 99.3662 82.625 99.4297L82.5713 98.8838L82.5283 98.4355C83.1878 98.3714 83.8492 98.3128 84.5127 98.2627L84.5303 98.5ZM98.4863 98.2627C99.1498 98.3128 99.8112 98.3714 100.471 98.4355L100.429 98.8838L100.375 99.4297C99.7227 99.3662 99.0684 99.3093 98.4121 99.2598L98.4863 98.2627ZM57.1338 97.6484C57.7086 97.8868 58.2922 98.1084 58.8838 98.3125L58.5576 99.2549C57.9468 99.0441 57.3444 98.8154 56.751 98.5693L56.9424 98.1104L57.1338 97.6484ZM88.5322 99.0479C87.8743 99.069 87.2178 99.0976 86.5635 99.1328L86.5332 98.585L86.5098 98.1348C87.1713 98.0992 87.8348 98.0712 88.5 98.0498L88.5322 99.0479ZM94.499 98.0498C95.1643 98.0712 95.8277 98.0992 96.4893 98.1348L96.4668 98.585L96.4365 99.1328C95.7822 99.0976 95.1257 99.069 94.4678 99.0479L94.499 98.0498ZM92.502 98.0059L92.4922 99.0049C92.162 99.0013 91.8311 99 91.5 99C91.1689 99 90.8381 99.0013 90.5078 99.0049L90.4971 98.0059C90.831 98.0023 91.1653 98 91.5 98C91.8344 98 92.1684 98.0023 92.502 98.0059ZM53.7695 96.0068C54.3121 96.3135 54.8646 96.6047 55.4268 96.8789L55.207 97.3271L54.9883 97.7754C54.4081 97.4923 53.8382 97.1915 53.2783 96.875L53.5234 96.4424L53.7695 96.0068ZM84.4766 96.4424L84.7207 96.875C84.1608 97.1915 83.591 97.4923 83.0107 97.7754L82.792 97.3281V97.3271L82.5732 96.8789C83.1354 96.6047 83.6879 96.3135 84.2305 96.0068L84.4766 96.4424ZM6.15918 95.0293C6.41215 95.6393 6.67427 96.2448 6.94434 96.8457L6.03223 97.2549C5.75814 96.645 5.49306 96.0303 5.23633 95.4111L5.69727 95.2207L6.15918 95.0293ZM132.763 95.4111C132.506 96.0303 132.241 96.645 131.967 97.2549L131.056 96.8457C131.326 96.2448 131.588 95.6393 131.841 95.0293L132.763 95.4111ZM50.627 93.9717C51.1291 94.3418 51.6434 94.6963 52.168 95.0361L51.624 95.875C51.0826 95.5242 50.5534 95.1564 50.0352 94.7744L50.627 93.9717ZM87.6689 94.374H87.6699L87.8672 94.6426L87.9639 94.7744C87.4456 95.1564 86.9164 95.5242 86.375 95.875L85.832 95.0361C86.3566 94.6963 86.8709 94.3418 87.373 93.9717L87.6689 94.374ZM47.752 91.5723C48.2065 92.0003 48.6736 92.4152 49.1533 92.8154L48.5137 93.5811C48.0187 93.1681 47.5364 92.7405 47.0674 92.2988L47.752 91.5723ZM90.9316 92.2988C90.4626 92.7405 89.9804 93.1681 89.4854 93.5811L88.8467 92.8154C89.3264 92.4152 89.7935 92.0003 90.248 91.5723L90.9316 92.2988ZM4.75195 91.334C4.96862 91.9573 5.19455 92.5764 5.42871 93.1914L4.96094 93.3691L4.49414 93.5469C4.25648 92.9227 4.02851 92.2939 3.80859 91.6611L4.28027 91.498L4.75195 91.334ZM133.72 91.498L134.19 91.6611C133.971 92.2939 133.743 92.9227 133.505 93.5469L133.038 93.3701V93.3691L132.571 93.1914C132.805 92.5764 133.031 91.9574 133.248 91.334L133.72 91.498ZM45.1846 88.8467C45.5848 89.3264 45.9997 89.7935 46.4277 90.248L45.7002 90.9316C45.2585 90.4626 44.8309 89.9804 44.418 89.4854L45.1846 88.8467ZM93.5811 89.4854C93.1681 89.9804 92.7405 90.4626 92.2988 90.9316L91.5723 90.248C92.0003 89.7935 92.4152 89.3264 92.8154 88.8467L93.5811 89.4854ZM3.56348 87.5615C3.74316 88.1963 3.93237 88.8271 4.12988 89.4541L3.17676 89.7539C2.97628 89.1175 2.78394 88.4773 2.60156 87.833L3.56348 87.5615ZM134.916 87.6973H134.917L135.397 87.833C135.215 88.4773 135.023 89.1174 134.822 89.7539L133.87 89.4541C134.068 88.8271 134.257 88.1963 134.437 87.5615L134.916 87.6973ZM42.9639 85.832C43.3037 86.3566 43.6582 86.8709 44.0283 87.373L43.625 87.6689L43.626 87.6699L43.2246 87.9639C42.8427 87.4456 42.4748 86.9164 42.124 86.375L42.9639 85.832ZM95.875 86.375C95.5242 86.9164 95.1564 87.4456 94.7744 87.9639L94.374 87.6699V87.6689L93.9717 87.373C94.3418 86.8709 94.6963 86.3566 95.0361 85.832L95.875 86.375ZM2.59863 83.7256C2.74093 84.3702 2.89228 85.0118 3.05273 85.6494L2.08398 85.8916C1.92112 85.2444 1.7665 84.5938 1.62207 83.9395L2.59863 83.7256ZM136.377 83.9395C136.233 84.5938 136.078 85.2444 135.915 85.8916L134.947 85.6494C135.108 85.0118 135.259 84.3702 135.401 83.7256L136.377 83.9395ZM41.1211 82.5732C41.3953 83.1354 41.6865 83.6879 41.9932 84.2305L41.5576 84.4766L41.124 84.7207C40.8076 84.1608 40.5067 83.591 40.2236 83.0107L40.6719 82.792L41.1211 82.5732ZM97.7754 83.0107C97.4923 83.591 97.1915 84.1608 96.875 84.7207L96.4424 84.4766L96.0068 84.2305C96.3135 83.6879 96.6047 83.1354 96.8789 82.5732L97.7754 83.0107ZM1.8584 79.8379C1.96298 80.4909 2.07717 81.1415 2.2002 81.7881L1.21777 81.9736C1.09293 81.3174 0.978185 80.6578 0.87207 79.9951L1.8584 79.8379ZM137.127 79.9951C137.021 80.6578 136.906 81.3174 136.781 81.9736L135.8 81.7881C135.923 81.1415 136.037 80.4909 136.142 79.8379L137.127 79.9951ZM39.6875 79.1162C39.8916 79.7078 40.1132 80.2914 40.3516 80.8662L39.8896 81.0576L39.4297 81.248C39.1836 80.6546 38.9549 80.0522 38.7441 79.4414L39.6875 79.1162ZM99.2549 79.4414C99.0441 80.0523 98.8154 80.6546 98.5693 81.248L98.1104 81.0576L97.6484 80.8662C97.8868 80.2914 98.1084 79.7078 98.3125 79.1162L99.2549 79.4414ZM1.34668 75.9141C1.41322 76.5731 1.48997 77.2295 1.5752 77.8828L1.0791 77.9473L0.583984 78.0107C0.497539 77.3479 0.420034 76.6823 0.352539 76.0137L1.34668 75.9141ZM137.149 75.9639H137.15L137.646 76.0137C137.579 76.6823 137.501 77.3479 137.415 78.0107L136.921 77.9473L136.425 77.8828C136.51 77.2295 136.587 76.5731 136.653 75.9141L137.149 75.9639ZM38.6846 75.5098C38.8156 76.1228 38.9642 76.7292 39.1309 77.3281L38.6484 77.4619L38.6494 77.4629L38.1689 77.5957C37.9968 76.9771 37.8433 76.3509 37.708 75.7178L38.6846 75.5098ZM100.291 75.7178C100.156 76.3509 100.002 76.9771 99.8301 77.5957L99.3506 77.4629V77.4619L98.8691 77.3281C99.0358 76.7292 99.1844 76.1228 99.3154 75.5098L100.291 75.7178ZM1.06348 71.9697C1.0919 72.6313 1.12957 73.2908 1.17676 73.9473L0.180664 74.0176C0.132798 73.3515 0.0942545 72.6829 0.0654297 72.0117L1.06348 71.9697ZM137.934 72.0117C137.905 72.6829 137.866 73.3515 137.818 74.0176L136.823 73.9473C136.87 73.2908 136.908 72.6313 136.937 71.9697L137.934 72.0117ZM38.125 71.8086C38.1811 72.4337 38.256 73.0533 38.3486 73.667L37.3604 73.8154C37.2647 73.1817 37.1897 72.5418 37.1318 71.8965L38.125 71.8086ZM100.867 71.8965C100.809 72.5418 100.734 73.1817 100.639 73.8154L99.6514 73.667C99.744 73.0533 99.8189 72.4337 99.875 71.8086L100.867 71.8965ZM0.506836 67.999H0.505859L1.00684 68.0068C1.00211 68.3373 1 68.6684 1 69C1 69.3316 1.00211 69.6627 1.00684 69.9932L0.505859 70L0.506836 70.001L0.0078125 70.0068C0.0030203 69.6718 0 69.3362 0 69C0 68.6635 0.003011 68.3276 0.0078125 67.9922L0.506836 67.999ZM138 69C138 69.3362 137.996 69.6718 137.991 70.0068L137.493 70.001V70L136.993 69.9932C136.998 69.6627 137 69.3316 137 69C137 68.6684 136.998 68.3373 136.993 68.0068L137.493 67.999L137.991 67.9922C137.996 68.3276 138 68.6635 138 69ZM37.5146 68.0459H37.5137L38.0137 68.0605C38.0044 68.3724 38 68.6858 38 69C38 69.3142 38.0044 69.6276 38.0137 69.9395L37.0156 69.9678C37.0061 69.6463 37 69.3237 37 69C37 68.6759 37.0061 68.353 37.0156 68.0312L37.5146 68.0459ZM101 69C101 69.3238 100.993 69.6463 100.983 69.9678L99.9863 69.9395C99.9956 69.6276 100 69.3142 100 69C100 68.6858 99.9956 68.3724 99.9863 68.0605L100.485 68.0459L100.983 68.0312C100.993 68.353 101 68.6759 101 69ZM38.3486 64.333C38.256 64.9467 38.1811 65.5663 38.125 66.1914L37.1318 66.1025C37.1898 65.4572 37.2647 64.8173 37.3604 64.1836L38.3486 64.333ZM100.639 64.1836C100.734 64.8173 100.809 65.4572 100.867 66.1025L99.875 66.1914C99.8189 65.5663 99.744 64.9467 99.6514 64.333L100.639 64.1836ZM1.17676 64.0527C1.12957 64.7092 1.0919 65.3687 1.06348 66.0303L0.0654297 65.9873C0.0942638 65.3161 0.132788 64.6475 0.180664 63.9814L1.17676 64.0527ZM137.818 63.9814C137.866 64.6475 137.905 65.3161 137.934 65.9873L136.937 66.0303C136.908 65.3687 136.87 64.7092 136.823 64.0527L137.818 63.9814ZM38.6494 60.5371H38.6484L39.1309 60.6719C38.9642 61.2708 38.8156 61.8772 38.6846 62.4902L37.708 62.2812C37.8433 61.6481 37.9968 61.0219 38.1689 60.4033L38.6494 60.5371ZM99.8301 60.4033C100.002 61.022 100.156 61.6481 100.291 62.2812L99.3154 62.4902C99.1844 61.8772 99.0358 61.2708 98.8691 60.6719L99.3506 60.5371L99.8301 60.4033ZM1.5752 60.1172C1.48998 60.7705 1.41322 61.4269 1.34668 62.0859L0.849609 62.0352V62.0361L0.352539 61.9854C0.420043 61.3168 0.49753 60.6511 0.583984 59.9883L1.5752 60.1172ZM137.415 59.9883C137.501 60.6511 137.579 61.3168 137.646 61.9854H137.647L137.15 62.0361L137.149 62.0352L136.653 62.0859C136.587 61.4269 136.51 60.7705 136.425 60.1172L137.415 59.9883ZM40.3516 57.1338C40.1132 57.7086 39.8916 58.2922 39.6875 58.8838L38.7441 58.5576C38.9549 57.9468 39.1836 57.3444 39.4297 56.751L40.3516 57.1338ZM98.5693 56.751C98.8154 57.3444 99.0441 57.9468 99.2549 58.5576L98.3125 58.8838C98.1084 58.2922 97.8868 57.7086 97.6484 57.1338L98.5693 56.751ZM2.2002 56.2119C2.07717 56.8585 1.96297 57.5091 1.8584 58.1621L0.87207 58.0039C0.978194 57.3412 1.09292 56.6816 1.21777 56.0254L2.2002 56.2119ZM136.781 56.0254C136.906 56.6816 137.021 57.3412 137.127 58.0039L136.142 58.1621C136.037 57.5091 135.923 56.8585 135.8 56.2119L136.781 56.0254ZM41.9932 53.7695C41.6865 54.3121 41.3953 54.8646 41.1211 55.4268L40.6719 55.207L40.2236 54.9883C40.5067 54.4081 40.8076 53.8382 41.124 53.2783L41.9932 53.7695ZM96.875 53.2783C97.1915 53.8382 97.4923 54.4081 97.7754 54.9883L97.3281 55.208L97.3271 55.207L96.8789 55.4268C96.6047 54.8646 96.3135 54.3121 96.0068 53.7695L96.875 53.2783ZM3.05273 52.3516C2.89233 52.989 2.7409 53.63 2.59863 54.2744L1.62207 54.0596C1.76651 53.4052 1.92111 52.7546 2.08398 52.1074L3.05273 52.3516ZM135.915 52.1074C136.078 52.7546 136.233 53.4052 136.377 54.0596L135.401 54.2744C135.259 53.6298 135.108 52.9882 134.947 52.3506L135.915 52.1074ZM43.626 50.3301H43.625L44.0283 50.627C43.6582 51.1291 43.3037 51.6434 42.9639 52.168L42.124 51.624C42.4748 51.0826 42.8427 50.5534 43.2246 50.0352L43.626 50.3301ZM94.7744 50.0352C95.1564 50.5534 95.5242 51.0826 95.875 51.624L95.0361 52.168C94.6963 51.6434 94.3418 51.1291 93.9717 50.627L94.374 50.3301L94.7744 50.0352ZM3.65332 48.3955H3.65234L4.12988 48.5459C3.93237 49.1729 3.74317 49.8037 3.56348 50.4385L3.08301 50.3018V50.3027L2.60156 50.166C2.78395 49.5218 2.97627 48.8816 3.17676 48.2451L3.65332 48.3955ZM134.822 48.2451C135.023 48.8816 135.215 49.5217 135.397 50.166H135.398L134.917 50.3027L134.916 50.3018L134.437 50.4385C134.257 49.8037 134.068 49.1729 133.87 48.5459L134.347 48.3955L134.822 48.2451ZM46.4277 47.752C45.9997 48.2065 45.5848 48.6736 45.1846 49.1533L44.418 48.5137C44.8309 48.0187 45.2585 47.5364 45.7002 47.0674L46.4277 47.752ZM92.2988 47.0674C92.7405 47.5364 93.1681 48.0187 93.5811 48.5137L92.8154 49.1533C92.4152 48.6736 92.0003 48.2065 91.5723 47.752L92.2988 47.0674ZM4.96191 44.6299H4.96094L5.42871 44.8086C5.19451 45.4237 4.96866 46.0435 4.75195 46.667L3.80859 46.3379C4.02851 45.7052 4.25647 45.0763 4.49414 44.4521L4.96191 44.6299ZM133.505 44.4521C133.743 45.0763 133.971 45.7052 134.19 46.3379L133.248 46.666C133.031 46.0426 132.805 45.4236 132.571 44.8086L133.038 44.6299L133.505 44.4521ZM49.1533 45.1846C48.6736 45.5848 48.2065 45.9997 47.752 46.4277L47.0674 45.7002C47.5364 45.2585 48.0187 44.8309 48.5137 44.418L49.1533 45.1846ZM89.4854 44.418C89.9804 44.8309 90.4626 45.2585 90.9316 45.7002L90.248 46.4277C89.7935 45.9997 89.3264 45.5848 88.8467 45.1846L89.4854 44.418ZM52.168 42.9639C51.6434 43.3037 51.1291 43.6582 50.627 44.0283L50.2256 43.4844L50.0352 43.2246C50.5534 42.8427 51.0826 42.4748 51.624 42.124L52.168 42.9639ZM86.375 42.124C86.9164 42.4748 87.4456 42.8427 87.9639 43.2246L87.7744 43.4844L87.373 44.0283C86.8709 43.6582 86.3566 43.3037 85.832 42.9639L86.375 42.124ZM6.94434 41.1543C6.67426 41.7552 6.41215 42.3607 6.15918 42.9707L5.23633 42.5879C5.49307 41.9688 5.75813 41.354 6.03223 40.7441L6.94434 41.1543ZM131.967 40.7441C132.241 41.354 132.506 41.9688 132.763 42.5879L131.841 42.9707C131.588 42.3607 131.326 41.7552 131.056 41.1543L131.967 40.7441ZM55.0508 40.3516L55.4268 41.1211C54.8646 41.3953 54.3121 41.6865 53.7695 41.9932L53.2783 41.124C53.8382 40.8076 54.4081 40.5067 54.9883 40.2236L55.0508 40.3516ZM83.0107 40.2236C83.591 40.5067 84.1608 40.8076 84.7207 41.124L84.2305 41.9932C83.6879 41.6865 83.1354 41.3953 82.5732 41.1211L82.9492 40.3516L83.0107 40.2236ZM58.8838 39.6875C58.2922 39.8916 57.7086 40.1132 57.1338 40.3516L56.751 39.4297C57.3444 39.1836 57.9468 38.9549 58.5576 38.7441L58.8838 39.6875ZM79.4414 38.7441C80.0522 38.9549 80.6546 39.1836 81.248 39.4297L80.8662 40.3516C80.2914 40.1132 79.7078 39.8916 79.1162 39.6875L79.4414 38.7441ZM8.66992 37.5957C8.36519 38.1799 8.06837 38.7693 7.78027 39.3633L6.88086 38.9268C7.17333 38.3237 7.47482 37.7259 7.78418 37.1328L8.66992 37.5957ZM130.215 37.1328C130.524 37.7259 130.826 38.3237 131.118 38.9268L130.22 39.3633C129.932 38.7693 129.635 38.1799 129.33 37.5957L130.215 37.1328ZM62.4902 38.6846C61.8772 38.8156 61.2708 38.9642 60.6719 39.1309L60.5244 38.6045L60.4033 38.1689C61.0219 37.9968 61.6481 37.8433 62.2812 37.708L62.4902 38.6846ZM75.7178 37.708C76.3509 37.8433 76.9771 37.9968 77.5957 38.1689L77.4756 38.6045L77.3281 39.1309C76.7292 38.9642 76.1228 38.8156 75.5098 38.6846L75.7178 37.708ZM66.1914 38.125C65.5663 38.1811 64.9467 38.256 64.333 38.3486L64.1836 37.3604C64.8173 37.2647 65.4572 37.1898 66.1025 37.1318L66.1914 38.125ZM71.8965 37.1318C72.5418 37.1897 73.1817 37.2647 73.8154 37.3604L73.667 38.3486C73.0533 38.256 72.4337 38.1811 71.8086 38.125L71.8965 37.1318ZM69.9678 37.0156L69.9395 38.0137C69.6276 38.0044 69.3142 38 69 38C68.6858 38 68.3724 38.0044 68.0605 38.0137L68.0312 37.0156C68.353 37.0061 68.6759 37 69 37C69.3237 37 69.6463 37.0061 69.9678 37.0156ZM10.6006 34.1436C10.2625 34.7088 9.93236 35.2797 9.61035 35.8555L8.7373 35.3672C9.06421 34.7827 9.3999 34.2037 9.74316 33.6299L10.6006 34.1436ZM128.256 33.6299C128.599 34.2037 128.935 34.7827 129.262 35.3672H129.263L128.39 35.8555C128.068 35.2797 127.738 34.7088 127.399 34.1436L128.256 33.6299ZM12.3164 30.5273H12.3154L12.7295 30.8086C12.3591 31.3533 11.9965 31.9041 11.6416 32.46L11.2197 32.1904V32.1914L10.7988 31.9219C11.1588 31.358 11.5266 30.7996 11.9023 30.2471L12.3164 30.5273ZM126.097 30.2471C126.472 30.7996 126.84 31.358 127.2 31.9219H127.201L126.78 32.1914L126.779 32.1904L126.358 32.46C126.004 31.9041 125.641 31.3533 125.271 30.8086L125.684 30.5273L126.097 30.2471ZM14.2559 26.9941L15.0488 27.6035C14.6472 28.1262 14.2528 28.655 13.8662 29.1895L13.4609 28.8955V28.8965L13.0566 28.6025C13.4488 28.0604 13.8475 27.5233 14.2549 26.9932L14.2559 26.9941ZM123.744 26.9932C124.152 27.5233 124.55 28.0604 124.942 28.6025L124.134 29.1895C123.747 28.655 123.353 28.1262 122.951 27.6035L123.744 26.9941V26.9932ZM16.9316 24.0039L17.5488 24.5371C17.1175 25.0358 16.6933 25.5415 16.2764 26.0527L15.502 25.4199C15.9248 24.9014 16.3545 24.3886 16.792 23.8828L16.9316 24.0039ZM121.206 23.8828C121.644 24.3888 122.074 24.9012 122.497 25.4199L121.724 26.0527C121.307 25.5415 120.883 25.0358 120.451 24.5371L121.206 23.8828ZM20.2227 21.6211C19.7631 22.0941 19.31 22.5744 18.8643 23.0605L18.1279 22.3848C18.5801 21.8916 19.0388 21.4046 19.5049 20.9248L20.2227 21.6211ZM118.494 20.9248C118.96 21.4046 119.419 21.8916 119.871 22.3848L119.136 23.0596C118.69 22.5735 118.237 22.094 117.777 21.6211L118.494 20.9248ZM23.0596 18.8643C22.5735 19.3099 22.094 19.7632 21.6211 20.2227L20.9248 19.5049C21.4046 19.0388 21.8916 18.5801 22.3848 18.1279L23.0596 18.8643ZM115.614 18.1279C116.107 18.5801 116.594 19.0388 117.074 19.5049L116.379 20.2227C115.906 19.7632 115.427 19.3099 114.94 18.8643L115.614 18.1279ZM26.0527 16.2764C25.5415 16.6933 25.0358 17.1175 24.5371 17.5488L23.8828 16.793C24.3888 16.3553 24.9013 15.925 25.4199 15.502L26.0527 16.2764ZM112.579 15.502C113.098 15.9248 113.61 16.3545 114.116 16.792L113.463 17.5488C112.964 17.1175 112.458 16.6933 111.947 16.2764L112.579 15.502ZM29.1895 13.8662C28.655 14.2528 28.1262 14.6472 27.6035 15.0488L26.9941 14.2559L26.9932 14.2549C27.5233 13.8475 28.0604 13.4488 28.6025 13.0566L29.1895 13.8662ZM109.396 13.0566C109.939 13.4488 110.476 13.8475 111.006 14.2549V14.2559L110.396 15.0488C109.874 14.6472 109.345 14.2528 108.811 13.8662L109.258 13.249L109.396 13.0566ZM32.1914 11.2197H32.1904L32.46 11.6416C31.9041 11.9965 31.3533 12.3591 30.8086 12.7295L30.5273 12.3154L30.2471 11.9023C30.7996 11.5266 31.358 11.1588 31.9219 10.7988L32.1914 11.2197ZM106.077 10.7988C106.641 11.1588 107.199 11.5266 107.752 11.9023L107.473 12.3164L107.472 12.3154L107.191 12.7295C106.647 12.3591 106.096 11.9965 105.54 11.6416L105.809 11.2197L106.077 10.7988ZM35.8555 9.61035C35.2797 9.93236 34.7088 10.2625 34.1436 10.6006L33.6299 9.74316C34.2037 9.3999 34.7827 9.06422 35.3672 8.7373L35.8555 9.61035ZM102.632 8.7373C103.216 9.06421 103.795 9.3999 104.369 9.74316L103.856 10.6006C103.291 10.2625 102.72 9.93236 102.145 9.61035L102.632 8.7373ZM39.3633 7.78027C38.7693 8.06837 38.1799 8.36519 37.5957 8.66992L37.1328 7.78418C37.7259 7.47482 38.3237 7.17333 38.9268 6.88086L39.3633 7.78027ZM99.0723 6.88086C99.6753 7.17333 100.273 7.47482 100.866 7.78418L100.404 8.66992C99.8201 8.36519 99.2307 8.06837 98.6367 7.78027L99.0723 6.88086ZM42.9707 6.15918C42.3607 6.41215 41.7552 6.67427 41.1543 6.94434L40.7441 6.03223C41.354 5.75813 41.9688 5.49307 42.5879 5.23633L42.9707 6.15918ZM95.4111 5.23633C96.0303 5.49306 96.645 5.75814 97.2549 6.03223L96.8457 6.94434C96.2448 6.67426 95.6393 6.41215 95.0293 6.15918L95.4111 5.23633ZM46.666 4.75195C46.0427 4.96862 45.4236 5.19456 44.8086 5.42871L44.6299 4.96094L44.4521 4.49414C45.0763 4.25647 45.7052 4.02851 46.3379 3.80859L46.666 4.75195ZM91.6611 3.80859C92.2939 4.02851 92.9227 4.25648 93.5469 4.49414H93.5479L93.3701 4.96191L93.3691 4.96094L93.1914 5.42871C92.5764 5.19456 91.9574 4.96862 91.334 4.75195L91.6611 3.80859ZM50.2373 2.85449L50.4385 3.56348C49.8037 3.74316 49.1729 3.93237 48.5459 4.12988L48.2451 3.17676C48.8816 2.97627 49.5218 2.78395 50.166 2.60156L50.2373 2.85449ZM87.833 2.60156C88.4773 2.78394 89.1175 2.97628 89.7539 3.17676L89.4541 4.12988C88.8271 3.93237 88.1963 3.74317 87.5615 3.56348L87.833 2.60156ZM54.2744 2.59863C53.6298 2.74093 52.9882 2.89228 52.3506 3.05273L52.1074 2.08398C52.7546 1.92111 53.4052 1.76651 54.0596 1.62207L54.2744 2.59863ZM83.9395 1.62207C84.5938 1.7665 85.2444 1.92112 85.8916 2.08398L85.6494 3.05273C85.0118 2.89229 84.3702 2.74093 83.7256 2.59863L83.9395 1.62207ZM58.1621 1.8584C57.5091 1.96298 56.8585 2.07717 56.2119 2.2002L56.0254 1.21777C56.6816 1.09292 57.3412 0.978194 58.0039 0.87207L58.1621 1.8584ZM79.9951 0.87207C80.6578 0.978185 81.3174 1.09293 81.9736 1.21777L81.7881 2.2002C81.1415 2.07717 80.4909 1.96297 79.8379 1.8584L79.9951 0.87207ZM62.0361 0.849609H62.0352L62.0859 1.34668C61.4269 1.41322 60.7705 1.48997 60.1172 1.5752L59.9883 0.583984C60.6511 0.49753 61.3168 0.420043 61.9854 0.352539L62.0361 0.849609ZM76.0137 0.352539C76.6823 0.420034 77.3479 0.497539 78.0107 0.583984L77.8828 1.5752C77.2295 1.48998 76.5731 1.41322 75.9141 1.34668L76.0137 0.352539ZM66.0303 1.06348C65.3687 1.0919 64.7092 1.12957 64.0527 1.17676L63.9814 0.180664C64.6475 0.132788 65.3161 0.0942638 65.9873 0.0654297L66.0303 1.06348ZM72.0117 0.0654297C72.6829 0.0942545 73.3515 0.132798 74.0176 0.180664L73.9473 1.17676C73.2908 1.12957 72.6313 1.0919 71.9697 1.06348L72.0117 0.0654297ZM70.0068 0.0078125L70.002 0.450195L69.9932 1.00684C69.6627 1.00211 69.3316 1 69 1C68.6684 1 68.3373 1.00211 68.0068 1.00684L67.998 0.450195L67.9922 0.0078125C68.3276 0.003011 68.6635 0 69 0C69.3362 0 69.6718 0.0030203 70.0068 0.0078125Z" fill="black"/>
</svg>
