<svg width="200" height="200" viewBox="0 0 200 200" fill="none" xmlns="http://www.w3.org/2000/svg">
<path d="M59.8305 38.9825C60.482 17.2665 78.2743 0 100 0C121.726 0 139.518 17.2665 140.169 38.9825L143.651 155.02C144.389 179.641 124.631 200 100 200C75.3685 200 55.6108 179.641 56.3494 155.02L59.8305 38.9825Z" fill="white"/>
<path d="M56.985 34.5111C57.3387 32.703 60.675 31.4647 62.3668 32.194C67.4251 34.3747 78.0694 37.0008 100 37.0008C121.931 37.0008 132.575 34.3747 137.633 32.194C139.325 31.4647 142.661 32.703 143.015 34.5111L144.006 39.579C147.65 58.2059 148.624 77.2566 146.899 96.1579L146 106.001C146 106.001 138.5 83.6794 100 83.6794C61.5 83.6794 54 106.001 54 106.001L53.1014 96.158C51.3759 77.2566 52.3497 58.2058 55.9936 39.5789L56.985 34.5111Z" fill="#0243B5"/>
<rect x="54" y="80" width="7" height="36" rx="3" fill="#0243B5"/>
<rect x="139" y="80" width="7" height="36" rx="3" fill="#0243B5"/>
</svg>
